<svg width="87" height="115" viewBox="0 0 87 115" fill="none" xmlns="http://www.w3.org/2000/svg">
<path d="M6.21484 43.5038C6.21055 22.9244 22.9413 6.19983 43.5166 6.21485C64.1113 6.22988 80.8099 22.9501 80.7862 43.5317C80.7626 64.0832 64.0791 80.7626 43.5252 80.7862C22.9606 80.8099 6.21914 64.081 6.21484 43.5038ZM42.175 38.5886C41.194 38.4512 40.2388 38.3611 39.3007 38.1786C35.3616 37.4124 31.9936 35.7446 29.9607 32.07C28.3894 29.2325 27.8163 26.1568 27.8978 22.9437C27.9193 22.1323 28.3959 21.6644 29.2373 21.6623C30.1711 21.6623 31.1156 21.6902 32.0408 21.8125C36.2246 22.362 39.9146 23.8258 42.3489 27.5391C42.3875 27.597 42.4584 27.6314 42.5743 27.7279C42.6322 27.5069 42.6773 27.3352 42.7202 27.1634C43.3621 24.5792 44.3538 22.1645 46.3609 20.3208C49.6195 17.3288 53.6208 16.4981 57.8818 16.5239C58.6374 16.5282 59.1204 17.0648 59.0861 17.8503C59.026 19.2369 58.9916 20.6406 58.7426 22.0014C57.8968 26.6247 55.6687 30.3014 51.0878 32.0293C49.1107 32.7741 46.9813 33.111 44.8561 33.6498V47.584C49.8878 44.3988 55.2801 42.5336 61.0889 41.924C66.9298 41.3102 72.6141 42.0786 78.2747 44.1734C78.0171 31.5614 73.0906 21.4262 62.5786 14.6115C50.4846 6.77076 37.7766 6.5411 25.4378 13.974C14.2797 20.6964 9.02477 31.0784 8.7178 44.1412C20.477 40.0138 31.5686 41.1857 42.175 47.5497V38.5864V38.5886ZM51.0234 77.3671C51.3303 77.3048 51.5944 77.2726 51.8434 77.1975C53.0712 76.8283 54.3055 76.4742 55.5184 76.0621C56.6411 75.6822 56.6539 75.65 56.4865 74.4952C55.1363 65.1735 50.8473 57.496 43.4351 51.6707C35.967 45.8025 27.432 43.4845 18.0019 44.4975C15.0911 44.8109 12.2683 45.5428 9.5464 46.6224C9.31242 46.7147 8.99901 47.0303 9.0076 47.2299C9.0355 47.9382 9.18577 48.6422 9.29095 49.3655C18.8327 48.1249 27.6059 50.0008 35.5398 55.3195C43.4973 60.6533 48.5698 68.084 51.0234 77.3628V77.3671ZM48.4539 78.0088C43.8987 59.2946 25.5237 49.3312 9.78896 52.0292C10.2183 53.332 10.6541 54.6134 11.0598 55.9034C11.2014 56.352 11.4547 56.4979 11.9227 56.5537C17.1755 57.174 22.0912 58.8181 26.627 61.5483C33.0626 65.4225 37.9161 70.7498 41.2047 77.5087C41.3486 77.8028 41.7521 78.1655 42.0333 78.1634C44.1413 78.1612 46.2493 78.0754 48.4539 78.011V78.0088ZM78.015 46.9208C73.741 44.9375 66.4447 43.5145 59.1462 44.7873C54.3055 45.6308 49.832 47.3715 45.9702 49.9536C47.7884 51.7587 49.5658 53.5252 51.3926 55.3389C59.2127 50.1382 68.0761 48.112 77.7166 49.372C77.8239 48.6293 77.9227 47.9704 78.0128 47.3093C78.03 47.1805 78.015 47.0453 78.015 46.9208ZM12.601 59.3054C15.6385 65.1285 19.9081 69.7367 25.47 73.1409C29.4262 75.562 33.6916 77.131 38.3648 77.8049C35.162 69.2152 21.2648 59.2538 12.601 59.3054ZM56.42 64.1926C56.4608 64.1733 56.538 64.154 56.596 64.1089C62.1278 59.8484 68.3509 57.2942 75.293 56.5022C75.4605 56.4829 75.7138 56.3906 75.7567 56.2704C76.2633 54.8516 76.7377 53.4222 77.2529 51.9004C68.2113 50.7843 60.0907 52.658 52.7192 57.5282C53.9857 59.8098 55.1964 61.9948 56.4178 64.1948L56.42 64.1926ZM59.1311 74.4931C65.835 70.9988 70.8946 65.9806 74.4172 59.271C74.1832 59.271 74.0759 59.256 73.9729 59.271C67.9623 60.2519 62.5636 62.6194 57.8002 66.4249C57.4418 66.7125 57.3194 66.9507 57.4783 67.4251C57.8281 68.4618 58.1265 69.5199 58.3712 70.5867C58.661 71.8531 58.8714 73.1387 59.1311 74.4909V74.4931ZM56.4286 19.0759C53.1271 19.4043 49.9608 20.0632 47.6381 22.7033C45.6225 24.9935 45.0214 27.8052 44.8132 30.7608C51.5643 30.9561 57.1756 25.3025 56.4286 19.0759ZM30.4502 24.2615C30.7679 27.6464 31.4333 30.8166 34.0758 33.1346C36.3663 35.1437 39.1805 35.7489 42.1514 35.9485C41.6856 28.4878 38.0728 24.6865 30.4502 24.2615Z" fill="black"/>
<path d="M51.0218 77.362C48.5682 68.0832 43.4958 60.6525 35.5382 55.3188C27.6043 50.0001 18.8311 48.1241 9.28939 49.3647C9.18205 48.6414 9.03179 47.9374 9.00603 47.2291C8.99745 47.0273 9.31085 46.714 9.54483 46.6217C12.2689 45.5421 15.0895 44.808 18.0004 44.4968C27.4305 43.4815 35.9654 45.7996 43.4335 51.6699C50.8458 57.4952 55.1326 65.1728 56.485 74.4945C56.6524 75.6492 56.6417 75.6814 55.5168 76.0613C54.304 76.4734 53.0697 76.8276 51.8418 77.1967C51.5907 77.2719 51.3288 77.3041 51.0218 77.3663V77.362Z" fill="#FEDE00"/>
<path d="M78.0213 46.918C78.0213 47.0424 78.0363 47.1777 78.0191 47.3065C77.929 47.9675 77.8302 48.6265 77.7229 49.3691C68.0803 48.1092 59.2169 50.1332 51.3989 55.336C49.5722 53.5223 47.7947 51.7559 45.9766 49.9508C49.8383 47.3687 54.3119 45.6301 59.1525 44.7845C66.451 43.5117 73.7495 44.9347 78.0213 46.918Z" fill="#FEDE00"/>
<path d="M12.5996 59.3029C21.2634 59.2514 35.1606 69.2127 38.3633 77.8025C33.6901 77.1285 29.4248 75.5595 25.4686 73.1384C19.9067 69.7343 15.6371 65.126 12.5996 59.3029Z" fill="#FEDE00"/>
<path d="M59.1318 74.4951C58.872 73.1429 58.6617 71.8572 58.3719 70.5909C58.1272 69.5241 57.8288 68.466 57.4789 67.4293C57.32 66.9549 57.4403 66.7167 57.8009 66.4291C62.5664 62.6236 67.963 60.2561 73.9735 59.2752C74.0765 59.258 74.1817 59.2752 74.4179 59.2752C70.8931 65.9848 65.8357 71.003 59.1318 74.4973V74.4951Z" fill="#FEDE00"/>
<path d="M56.4259 19.0801C57.1729 25.3067 51.5617 30.9602 44.8105 30.7649C45.0188 27.8094 45.6198 24.9976 47.6355 22.7074C49.9581 20.0674 53.1244 19.4085 56.4259 19.0801Z" fill="#FEDE00"/>
<path d="M30.4531 24.2637C38.0779 24.6887 41.6885 28.4899 42.1543 35.9507C39.1834 35.7511 36.3692 35.1458 34.0788 33.1368C31.4363 30.8187 30.7708 27.6485 30.4531 24.2637Z" fill="#FEDE00"/>
<path d="M11.48 106.52H8.04L7.192 109H5L9.032 97.72H10.648L14.68 109H12.376L11.48 106.52ZM8.6 104.76H11L10.168 102.264L9.832 100.504H9.752L9.416 102.28L8.6 104.76ZM22.0706 109C22.0706 110.163 21.756 111.016 21.1266 111.56C20.4973 112.115 19.6173 112.392 18.4866 112.392C17.7186 112.392 17.1106 112.339 16.6626 112.232C16.2253 112.125 15.8946 112.013 15.6706 111.896L16.1026 110.248C16.348 110.344 16.6306 110.44 16.9506 110.536C17.2813 110.632 17.6866 110.68 18.1666 110.68C18.892 110.68 19.3826 110.52 19.6386 110.2C19.9053 109.891 20.0386 109.453 20.0386 108.888V108.376H19.9746C19.6013 108.877 18.94 109.128 17.9906 109.128C16.956 109.128 16.1826 108.808 15.6706 108.168C15.1693 107.528 14.9186 106.525 14.9186 105.16C14.9186 103.731 15.26 102.648 15.9426 101.912C16.6253 101.176 17.6173 100.808 18.9186 100.808C19.6013 100.808 20.2093 100.856 20.7426 100.952C21.2866 101.048 21.7293 101.16 22.0706 101.288V109ZM18.5506 107.464C18.956 107.464 19.2653 107.373 19.4786 107.192C19.7026 107.011 19.8733 106.739 19.9906 106.376V102.776C19.66 102.637 19.2493 102.568 18.7586 102.568C18.2253 102.568 17.8093 102.771 17.5106 103.176C17.212 103.571 17.0626 104.205 17.0626 105.08C17.0626 105.859 17.1906 106.451 17.4466 106.856C17.7026 107.261 18.0706 107.464 18.5506 107.464ZM28.2968 102.952C27.9661 102.835 27.6674 102.776 27.4008 102.776C27.0274 102.776 26.7128 102.877 26.4568 103.08C26.2114 103.272 26.0461 103.523 25.9608 103.832V109H23.8808V101H25.4968L25.7368 102.056H25.8008C25.9821 101.661 26.2274 101.357 26.5368 101.144C26.8461 100.931 27.2088 100.824 27.6248 100.824C27.9021 100.824 28.2168 100.883 28.5688 101L28.2968 102.952ZM29.6821 101H31.7621V109H29.6821V101ZM29.3781 98.744C29.3781 98.4347 29.4901 98.1733 29.7141 97.96C29.9488 97.736 30.2688 97.624 30.6741 97.624C31.0795 97.624 31.4048 97.736 31.6501 97.96C31.9061 98.1733 32.0341 98.4347 32.0341 98.744C32.0341 99.0533 31.9061 99.3147 31.6501 99.528C31.4048 99.7307 31.0795 99.832 30.6741 99.832C30.2688 99.832 29.9488 99.7307 29.7141 99.528C29.4901 99.3147 29.3781 99.0533 29.3781 98.744ZM39.451 108.504C39.131 108.739 38.7417 108.915 38.283 109.032C37.835 109.16 37.371 109.224 36.891 109.224C36.251 109.224 35.707 109.123 35.259 108.92C34.8217 108.717 34.4643 108.435 34.187 108.072C33.9097 107.699 33.707 107.251 33.579 106.728C33.4617 106.205 33.403 105.629 33.403 105C33.403 103.645 33.707 102.605 34.315 101.88C34.923 101.144 35.8083 100.776 36.971 100.776C37.5577 100.776 38.027 100.824 38.379 100.92C38.7417 101.016 39.067 101.139 39.355 101.288L38.859 102.984C38.6137 102.867 38.3683 102.776 38.123 102.712C37.8883 102.648 37.6163 102.616 37.307 102.616C36.731 102.616 36.2937 102.808 35.995 103.192C35.6963 103.565 35.547 104.168 35.547 105C35.547 105.341 35.5843 105.656 35.659 105.944C35.7337 106.232 35.8457 106.483 35.995 106.696C36.1443 106.909 36.3363 107.08 36.571 107.208C36.8163 107.325 37.099 107.384 37.419 107.384C37.771 107.384 38.0697 107.341 38.315 107.256C38.5603 107.16 38.779 107.048 38.971 106.92L39.451 108.504ZM42.7089 101V105.544C42.7089 106.195 42.7835 106.664 42.9329 106.952C43.0929 107.24 43.3969 107.384 43.8449 107.384C44.2395 107.384 44.5649 107.267 44.8209 107.032C45.0875 106.797 45.2849 106.509 45.4129 106.168V101H47.4929V106.568C47.4929 107.005 47.5142 107.437 47.5569 107.864C47.5995 108.28 47.6635 108.659 47.7489 109H46.1809L45.8129 107.816H45.7489C45.5035 108.221 45.1622 108.557 44.7249 108.824C44.2875 109.091 43.7702 109.224 43.1729 109.224C42.7675 109.224 42.4049 109.171 42.0849 109.064C41.7649 108.957 41.4982 108.781 41.2849 108.536C41.0715 108.291 40.9062 107.96 40.7889 107.544C40.6822 107.128 40.6289 106.605 40.6289 105.976V101H42.7089ZM51.4623 106.312C51.4623 106.685 51.5103 106.957 51.6063 107.128C51.7023 107.299 51.8569 107.384 52.0703 107.384C52.1983 107.384 52.3209 107.373 52.4383 107.352C52.5663 107.331 52.7209 107.283 52.9023 107.208L53.1263 108.84C52.9556 108.925 52.6943 109.011 52.3423 109.096C51.9903 109.181 51.6276 109.224 51.2543 109.224C50.6463 109.224 50.1823 109.085 49.8623 108.808C49.5423 108.52 49.3823 108.051 49.3823 107.4V97.8H51.4623V106.312ZM53.1894 101H54.2934V99.496L56.3734 98.904V101H58.3254V102.76H56.3734V105.832C56.3734 106.387 56.4267 106.787 56.5334 107.032C56.6507 107.267 56.864 107.384 57.1734 107.384C57.3867 107.384 57.568 107.363 57.7174 107.32C57.8774 107.277 58.0534 107.213 58.2454 107.128L58.6134 108.728C58.3254 108.867 57.9894 108.984 57.6054 109.08C57.2214 109.176 56.832 109.224 56.4374 109.224C55.7014 109.224 55.1574 109.037 54.8054 108.664C54.464 108.28 54.2934 107.656 54.2934 106.792V102.76H53.1894V101ZM61.5995 101V105.544C61.5995 106.195 61.6742 106.664 61.8235 106.952C61.9835 107.24 62.2875 107.384 62.7355 107.384C63.1302 107.384 63.4555 107.267 63.7115 107.032C63.9782 106.797 64.1755 106.509 64.3035 106.168V101H66.3835V106.568C66.3835 107.005 66.4048 107.437 66.4475 107.864C66.4902 108.28 66.5542 108.659 66.6395 109H65.0715L64.7035 107.816H64.6395C64.3942 108.221 64.0528 108.557 63.6155 108.824C63.1782 109.091 62.6608 109.224 62.0635 109.224C61.6582 109.224 61.2955 109.171 60.9755 109.064C60.6555 108.957 60.3888 108.781 60.1755 108.536C59.9622 108.291 59.7968 107.96 59.6795 107.544C59.5728 107.128 59.5195 106.605 59.5195 105.976V101H61.5995ZM72.6249 102.952C72.2942 102.835 71.9955 102.776 71.7289 102.776C71.3555 102.776 71.0409 102.877 70.7849 103.08C70.5395 103.272 70.3742 103.523 70.2889 103.832V109H68.2089V101H69.8249L70.0649 102.056H70.1289C70.3102 101.661 70.5555 101.357 70.8649 101.144C71.1742 100.931 71.5369 100.824 71.9529 100.824C72.2302 100.824 72.5449 100.883 72.8969 101L72.6249 102.952ZM80.2183 108.312C79.8983 108.568 79.4609 108.787 78.9063 108.968C78.3623 109.139 77.7809 109.224 77.1623 109.224C75.8716 109.224 74.9276 108.851 74.3303 108.104C73.7329 107.347 73.4342 106.312 73.4342 105C73.4342 103.592 73.7703 102.536 74.4423 101.832C75.1143 101.128 76.0583 100.776 77.2743 100.776C77.6796 100.776 78.0743 100.829 78.4583 100.936C78.8423 101.043 79.1836 101.219 79.4823 101.464C79.7809 101.709 80.0209 102.04 80.2023 102.456C80.3836 102.872 80.4743 103.389 80.4743 104.008C80.4743 104.232 80.4583 104.472 80.4263 104.728C80.4049 104.984 80.3676 105.251 80.3143 105.528H75.5143C75.5463 106.2 75.7169 106.707 76.0263 107.048C76.3463 107.389 76.8583 107.56 77.5623 107.56C77.9996 107.56 78.3889 107.496 78.7303 107.368C79.0823 107.229 79.3489 107.091 79.5303 106.952L80.2183 108.312ZM77.2423 102.44C76.6983 102.44 76.2929 102.605 76.0263 102.936C75.7703 103.256 75.6156 103.688 75.5623 104.232H78.5383C78.5809 103.656 78.4903 103.213 78.2663 102.904C78.0529 102.595 77.7116 102.44 77.2423 102.44Z" fill="black"/>
</svg>
