<svg width="87" height="115" viewBox="0 0 87 115" fill="none" xmlns="http://www.w3.org/2000/svg">
<path d="M17.544 108.536C17.2027 108.781 16.7653 108.957 16.232 109.064C15.7093 109.171 15.1707 109.224 14.616 109.224C13.944 109.224 13.304 109.123 12.696 108.92C12.0987 108.707 11.5707 108.371 11.112 107.912C10.6533 107.443 10.2853 106.84 10.008 106.104C9.74133 105.357 9.608 104.456 9.608 103.4C9.608 102.301 9.75733 101.384 10.056 100.648C10.3653 99.9013 10.76 99.304 11.24 98.856C11.7307 98.3973 12.2747 98.072 12.872 97.88C13.4693 97.6773 14.0667 97.576 14.664 97.576C15.304 97.576 15.8427 97.6187 16.28 97.704C16.728 97.7893 17.096 97.8907 17.384 98.008L16.952 99.864C16.7067 99.7467 16.4133 99.6613 16.072 99.608C15.7413 99.5547 15.336 99.528 14.856 99.528C13.9707 99.528 13.256 99.8427 12.712 100.472C12.1787 101.101 11.912 102.077 11.912 103.4C11.912 103.976 11.976 104.504 12.104 104.984C12.232 105.453 12.424 105.859 12.68 106.2C12.9467 106.531 13.272 106.792 13.656 106.984C14.0507 107.165 14.504 107.256 15.016 107.256C15.496 107.256 15.9013 107.208 16.232 107.112C16.5627 107.016 16.8507 106.893 17.096 106.744L17.544 108.536ZM23.7455 109V104.456C23.7455 103.805 23.6548 103.336 23.4735 103.048C23.2922 102.76 22.9615 102.616 22.4815 102.616C22.1295 102.616 21.8042 102.739 21.5055 102.984C21.2175 103.219 21.0255 103.523 20.9295 103.896V109H18.8495V97.8H20.9295V101.896H20.9935C21.2495 101.555 21.5642 101.283 21.9375 101.08C22.3108 100.877 22.7855 100.776 23.3615 100.776C23.7668 100.776 24.1242 100.829 24.4335 100.936C24.7428 101.043 24.9988 101.219 25.2015 101.464C25.4148 101.709 25.5695 102.045 25.6655 102.472C25.7722 102.888 25.8255 103.405 25.8255 104.024V109H23.7455ZM33.9683 108.312C33.6483 108.568 33.2109 108.787 32.6563 108.968C32.1123 109.139 31.5309 109.224 30.9123 109.224C29.6216 109.224 28.6776 108.851 28.0803 108.104C27.4829 107.347 27.1842 106.312 27.1842 105C27.1842 103.592 27.5203 102.536 28.1923 101.832C28.8643 101.128 29.8083 100.776 31.0243 100.776C31.4296 100.776 31.8243 100.829 32.2083 100.936C32.5923 101.043 32.9336 101.219 33.2323 101.464C33.5309 101.709 33.7709 102.04 33.9523 102.456C34.1336 102.872 34.2243 103.389 34.2243 104.008C34.2243 104.232 34.2083 104.472 34.1763 104.728C34.1549 104.984 34.1176 105.251 34.0643 105.528H29.2643C29.2963 106.2 29.4669 106.707 29.7763 107.048C30.0963 107.389 30.6083 107.56 31.3123 107.56C31.7496 107.56 32.1389 107.496 32.4803 107.368C32.8323 107.229 33.0989 107.091 33.2803 106.952L33.9683 108.312ZM30.9923 102.44C30.4483 102.44 30.0429 102.605 29.7763 102.936C29.5203 103.256 29.3656 103.688 29.3123 104.232H32.2883C32.3309 103.656 32.2403 103.213 32.0163 102.904C31.8029 102.595 31.4616 102.44 30.9923 102.44ZM40.2373 109V104.648C40.2373 103.912 40.1679 103.389 40.0293 103.08C39.8906 102.771 39.6026 102.616 39.1653 102.616C38.8026 102.616 38.5093 102.717 38.2853 102.92C38.0613 103.112 37.8906 103.363 37.7733 103.672V109H35.6933V101H37.3093L37.5493 102.056H37.6133C37.8586 101.715 38.1679 101.416 38.5413 101.16C38.9253 100.904 39.4159 100.776 40.0133 100.776C40.5253 100.776 40.9413 100.883 41.2613 101.096C41.5919 101.299 41.8479 101.645 42.0293 102.136C42.2746 101.72 42.5893 101.389 42.9733 101.144C43.3573 100.899 43.8213 100.776 44.3653 100.776C44.8133 100.776 45.1919 100.829 45.5013 100.936C45.8213 101.043 46.0773 101.229 46.2693 101.496C46.4719 101.752 46.6213 102.099 46.7173 102.536C46.8133 102.973 46.8613 103.528 46.8613 104.2V109H44.7812V104.504C44.7812 103.875 44.7119 103.405 44.5733 103.096C44.4453 102.776 44.1519 102.616 43.6933 102.616C43.3199 102.616 43.0213 102.717 42.7973 102.92C42.5839 103.123 42.4239 103.4 42.3173 103.752V109H40.2373ZM48.7603 101H50.8403V109H48.7603V101ZM48.4563 98.744C48.4563 98.4347 48.5683 98.1733 48.7923 97.96C49.0269 97.736 49.3469 97.624 49.7523 97.624C50.1576 97.624 50.4829 97.736 50.7283 97.96C50.9843 98.1733 51.1123 98.4347 51.1123 98.744C51.1123 99.0533 50.9843 99.3147 50.7283 99.528C50.4829 99.7307 50.1576 99.832 49.7523 99.832C49.3469 99.832 49.0269 99.7307 48.7923 99.528C48.5683 99.3147 48.4563 99.0533 48.4563 98.744ZM58.5291 108.504C58.2091 108.739 57.8198 108.915 57.3611 109.032C56.9131 109.16 56.4491 109.224 55.9691 109.224C55.3291 109.224 54.7851 109.123 54.3371 108.92C53.8998 108.717 53.5425 108.435 53.2651 108.072C52.9878 107.699 52.7851 107.251 52.6571 106.728C52.5398 106.205 52.4811 105.629 52.4811 105C52.4811 103.645 52.7851 102.605 53.3931 101.88C54.0011 101.144 54.8865 100.776 56.0491 100.776C56.6358 100.776 57.1051 100.824 57.4571 100.92C57.8198 101.016 58.1451 101.139 58.4331 101.288L57.9371 102.984C57.6918 102.867 57.4465 102.776 57.2011 102.712C56.9665 102.648 56.6945 102.616 56.3851 102.616C55.8091 102.616 55.3718 102.808 55.0731 103.192C54.7745 103.565 54.6251 104.168 54.6251 105C54.6251 105.341 54.6625 105.656 54.7371 105.944C54.8118 106.232 54.9238 106.483 55.0731 106.696C55.2225 106.909 55.4145 107.08 55.6491 107.208C55.8945 107.325 56.1771 107.384 56.4971 107.384C56.8491 107.384 57.1478 107.341 57.3931 107.256C57.6385 107.16 57.8571 107.048 58.0491 106.92L58.5291 108.504ZM59.739 101.464C60.1657 101.272 60.6723 101.123 61.259 101.016C61.8457 100.899 62.459 100.84 63.099 100.84C63.6537 100.84 64.1177 100.909 64.491 101.048C64.8643 101.176 65.1577 101.363 65.371 101.608C65.595 101.853 65.7497 102.147 65.835 102.488C65.931 102.829 65.979 103.213 65.979 103.64C65.979 104.109 65.963 104.584 65.931 105.064C65.899 105.533 65.8777 105.997 65.867 106.456C65.867 106.915 65.883 107.363 65.915 107.8C65.947 108.227 66.027 108.632 66.155 109.016H64.459L64.123 107.912H64.043C63.8297 108.243 63.531 108.531 63.147 108.776C62.7737 109.011 62.2883 109.128 61.691 109.128C61.3177 109.128 60.9817 109.075 60.683 108.968C60.3843 108.851 60.1283 108.691 59.915 108.488C59.7017 108.275 59.5363 108.029 59.419 107.752C59.3017 107.464 59.243 107.144 59.243 106.792C59.243 106.301 59.3497 105.891 59.563 105.56C59.787 105.219 60.1017 104.947 60.507 104.744C60.923 104.531 61.4137 104.387 61.979 104.312C62.555 104.227 63.195 104.2 63.899 104.232C63.9737 103.635 63.931 103.208 63.771 102.952C63.611 102.685 63.2537 102.552 62.699 102.552C62.283 102.552 61.8403 102.595 61.371 102.68C60.9123 102.765 60.5337 102.877 60.235 103.016L59.739 101.464ZM62.379 107.416C62.795 107.416 63.1257 107.325 63.371 107.144C63.6163 106.952 63.7977 106.749 63.915 106.536V105.496C63.5843 105.464 63.2643 105.459 62.955 105.48C62.6563 105.501 62.3897 105.549 62.155 105.624C61.9203 105.699 61.7337 105.805 61.595 105.944C61.4563 106.083 61.387 106.259 61.387 106.472C61.387 106.771 61.4723 107.005 61.643 107.176C61.8243 107.336 62.0697 107.416 62.379 107.416ZM69.8685 106.312C69.8685 106.685 69.9165 106.957 70.0125 107.128C70.1085 107.299 70.2632 107.384 70.4765 107.384C70.6045 107.384 70.7272 107.373 70.8445 107.352C70.9725 107.331 71.1272 107.283 71.3085 107.208L71.5325 108.84C71.3618 108.925 71.1005 109.011 70.7485 109.096C70.3965 109.181 70.0338 109.224 69.6605 109.224C69.0525 109.224 68.5885 109.085 68.2685 108.808C67.9485 108.52 67.7885 108.051 67.7885 107.4V97.8H69.8685V106.312ZM75.7396 106.792C75.7396 106.579 75.649 106.408 75.4676 106.28C75.2863 106.152 75.0623 106.035 74.7956 105.928C74.529 105.821 74.2356 105.715 73.9156 105.608C73.5956 105.491 73.3023 105.336 73.0356 105.144C72.769 104.941 72.545 104.691 72.3636 104.392C72.1823 104.083 72.0916 103.688 72.0916 103.208C72.0916 102.419 72.3263 101.816 72.7956 101.4C73.265 100.984 73.9423 100.776 74.8276 100.776C75.4356 100.776 75.985 100.84 76.4756 100.968C76.9663 101.096 77.3503 101.24 77.6276 101.4L77.1636 102.904C76.9183 102.808 76.609 102.707 76.2356 102.6C75.8623 102.493 75.4836 102.44 75.0996 102.44C74.481 102.44 74.1716 102.68 74.1716 103.16C74.1716 103.352 74.2623 103.507 74.4436 103.624C74.625 103.741 74.849 103.853 75.1156 103.96C75.3823 104.056 75.6756 104.163 75.9956 104.28C76.3156 104.397 76.609 104.552 76.8756 104.744C77.1423 104.925 77.3663 105.165 77.5476 105.464C77.729 105.763 77.8196 106.147 77.8196 106.616C77.8196 107.427 77.5583 108.067 77.0356 108.536C76.5236 108.995 75.7503 109.224 74.7156 109.224C74.1503 109.224 73.617 109.149 73.1156 109C72.625 108.861 72.225 108.696 71.9156 108.504L72.4916 106.952C72.737 107.091 73.0623 107.229 73.4676 107.368C73.873 107.496 74.289 107.56 74.7156 107.56C75.025 107.56 75.2703 107.501 75.4516 107.384C75.6436 107.267 75.7396 107.069 75.7396 106.792Z" fill="black"/>
<path d="M41.8759 80.7863C41.3699 80.6151 40.8403 80.4925 40.3619 80.2649C38.1234 79.1988 36.9146 77.4207 36.8772 74.9636C36.8299 71.7615 36.8654 68.5573 36.8654 65.3532C36.8654 65.0906 36.8654 64.828 36.8654 64.4778C36.5267 64.4778 36.2413 64.4778 35.9558 64.4778C28.1201 64.4778 20.2864 64.4895 12.4507 64.472C8.82427 64.4642 6.06013 61.5966 6.22157 58.0501C6.27276 56.9373 6.6291 55.9121 7.2532 54.9822C9.43065 51.7256 11.6278 48.4825 13.7856 45.2123C17.4455 39.6659 21.0818 34.1059 24.7201 28.5459C24.8854 28.2929 25.0607 27.9817 25.0626 27.6977C25.0843 23.622 25.0784 19.5444 25.0784 15.4512C24.8146 15.3384 24.5665 15.2392 24.3243 15.1302C22.3398 14.2431 21.2098 12.1148 21.6252 10.0546C22.0681 7.84851 23.8814 6.2591 26.1061 6.23965C30.1342 6.20658 34.1622 6.20658 38.1903 6.23965C40.417 6.2591 42.2263 7.84657 42.6732 10.0507C43.0906 12.1109 41.9566 14.247 39.976 15.1263C39.7535 15.2256 39.5232 15.3092 39.2554 15.4181C39.2436 15.6244 39.2239 15.8345 39.2239 16.0446C39.222 19.8304 39.2121 23.6162 39.2377 27.4019C39.2397 27.7832 39.3775 28.2151 39.5862 28.5381C41.9448 32.1721 44.3368 35.7848 46.6934 39.4188C46.9789 39.8604 47.2722 40.0219 47.8038 40.0219C56.0313 40.0044 64.2607 40.0083 72.4881 40.0083C72.6594 40.0083 72.8327 40.0083 73.004 40.0083C74.4766 40.0161 74.9393 40.767 74.2758 42.0879C73.6989 43.2396 73.0906 44.3758 72.5413 45.5411C72.3621 45.9204 72.246 46.3659 72.246 46.7822C72.2302 55.9802 72.2342 65.1782 72.2342 74.3781C72.2342 77.8137 70.6985 79.7922 67.3398 80.6987C67.2965 80.7104 67.2631 80.7551 67.2237 80.7843H41.8759V80.7863ZM39.2239 47.0313C39.2239 47.327 39.2239 47.5662 39.2239 47.8036C39.2239 56.7292 39.2239 65.6567 39.2239 74.5823C39.2239 77.0472 40.6533 78.4537 43.1556 78.4537C50.7412 78.4537 58.3249 78.4537 65.9105 78.4537C68.464 78.4537 69.8736 77.0627 69.8756 74.5395C69.8756 65.6373 69.8756 56.735 69.8756 47.8328V47.0293H39.222L39.2239 47.0313ZM27.433 15.5796V16.4278C27.433 20.237 27.4507 24.048 27.4133 27.8572C27.4074 28.3785 27.2361 28.968 26.9507 29.4057C23.6786 34.4483 20.3829 39.4733 17.0694 44.4886C14.4687 48.4261 11.8168 52.3325 9.23378 56.2817C8.87743 56.8265 8.64118 57.5307 8.5959 58.1785C8.43643 60.4216 10.2024 62.1375 12.6004 62.1394C20.4833 62.1472 28.3662 62.1433 36.2491 62.1394C36.4381 62.1394 36.6252 62.1141 36.8083 62.1005V59.8127C36.4618 59.8127 36.1684 59.8127 35.877 59.8127C29.0494 59.8127 22.2237 59.8068 15.396 59.8185C14.1065 59.8205 13.0847 59.3711 12.4665 58.2349C11.8601 57.1202 12.0452 56.0483 12.7441 55.0133C17.2545 48.3386 21.761 41.6619 26.2557 34.9774C26.6337 34.4152 27.0964 34.1701 27.7835 34.174C30.6815 34.1973 33.5795 34.1973 36.4775 34.174C37.1941 34.1681 37.6765 34.4152 38.0624 35.0066C39.0586 36.5357 40.0902 38.0415 41.1218 39.5472C41.2478 39.7301 41.4565 39.9733 41.6396 39.9849C42.4783 40.0316 43.319 40.0063 44.262 40.0063C44.0257 39.6367 43.8741 39.3916 43.7166 39.1484C41.5707 35.8704 39.411 32.6021 37.2886 29.3085C37.0425 28.9252 36.885 28.4155 36.8811 27.9622C36.8496 24.1045 36.8634 20.2447 36.8634 16.387C36.8634 16.1282 36.8634 15.8675 36.8634 15.5757H27.431L27.433 15.5796ZM38.5861 40.0122C37.8517 38.9227 37.1863 37.9714 36.5681 36.9929C36.3279 36.6116 36.0483 36.5026 35.6113 36.5085C33.3275 36.5299 31.0418 36.5376 28.758 36.5046C28.2205 36.4968 27.9331 36.6894 27.6456 37.1154C24.285 42.1307 20.9026 47.1324 17.5262 52.138C16.5871 53.5309 15.648 54.9238 14.705 56.3129C14.4667 56.665 14.2974 57.0424 14.7266 57.3245C14.9452 57.4684 15.2818 57.4801 15.5653 57.4801C22.4186 57.4879 29.2699 57.486 36.1231 57.484C36.3574 57.484 36.5937 57.4626 36.8614 57.4509C36.8614 53.6943 36.8654 50.0077 36.8516 46.3212C36.8516 46.0955 36.7256 45.8582 36.6212 45.6461C35.9814 44.3641 35.314 43.0937 34.6899 41.8039C34.2272 40.8448 34.7509 40.0394 35.8318 40.0141C36.6901 39.9947 37.5505 40.0102 38.5861 40.0102V40.0122ZM37.6233 42.3797C37.9127 42.9595 38.2081 43.4614 38.4167 43.9964C38.6235 44.5275 38.9326 44.6909 39.5173 44.689C44.894 44.6617 50.2726 44.6734 55.6493 44.6734C60.3153 44.6734 64.9793 44.6753 69.6453 44.6676C69.8953 44.6676 70.2831 44.6501 70.3737 44.5022C70.7812 43.8369 71.1061 43.1229 71.4801 42.3817H37.6253L37.6233 42.3797ZM32.1482 13.2179C34.0146 13.2179 35.881 13.2198 37.7474 13.2179C39.3165 13.214 40.3875 12.2763 40.3973 10.9048C40.4072 9.52936 39.3322 8.56248 37.7789 8.56054C34.0225 8.55665 30.2661 8.55665 26.5077 8.56054C24.9524 8.56054 23.8853 9.52741 23.8971 10.9087C23.907 12.2549 24.9721 13.214 26.4762 13.2179C28.3662 13.2237 30.2582 13.2179 32.1482 13.2179Z" fill="black"/>
<path d="M49.778 23.718H47.4883V25.9766H45.1219V23.7141H42.8086V21.3757H45.0983V19.0918H47.4647V21.3543H49.776V23.718H49.778Z" fill="black"/>
<path d="M62.8359 29.5656V27.2272H65.1256V24.918H67.4921V27.1571H69.829V29.4955H67.5629V31.8048H65.1965V29.5656H62.8359Z" fill="black"/>
<path d="M47.4162 30.6805H45.1758V28.4141H47.4162V30.6805Z" fill="black"/>
<path d="M65.1895 36.458V34.2285H67.4831V36.458H65.1895Z" fill="black"/>
<path d="M38.5923 40.0156C37.5567 40.0156 36.6964 40.0001 35.838 40.0195C34.7571 40.0429 34.2334 40.8502 34.6961 41.8093C35.3202 43.0991 35.9876 44.3676 36.6274 45.6515C36.7338 45.8636 36.8578 46.1009 36.8578 46.3266C36.8716 50.0132 36.8676 53.6997 36.8676 57.4564C36.5999 57.468 36.3656 57.4894 36.1293 57.4894C29.2761 57.4894 22.4248 57.4933 15.5715 57.4855C15.288 57.4855 14.9514 57.4739 14.7328 57.3299C14.3036 57.0478 14.473 56.6685 14.7112 56.3183C15.6542 54.9292 16.5933 53.5363 17.5324 52.1434C20.9088 47.1378 24.2892 42.1362 27.6519 37.1209C27.9393 36.6929 28.2248 36.5022 28.7642 36.51C31.048 36.5431 33.3317 36.5353 35.6175 36.5139C36.0545 36.51 36.3341 36.617 36.5743 36.9983C37.1925 37.9788 37.8579 38.9282 38.5923 40.0176V40.0156Z" fill="#FEDE00"/>
<path d="M68.6644 56.3652V58.6083H60.5039V56.3652H68.6644Z" fill="black"/>
<path d="M60.4805 67.915V65.6758H68.641V67.915H60.4805Z" fill="black"/>
<path d="M61.6328 53.9404V51.7168H67.4564V53.9404H61.6328Z" fill="black"/>
<path d="M61.6816 61.0156H67.4816V63.2567H61.6816V61.0156Z" fill="black"/>
<path d="M61.6816 70.3242H67.4698V72.5906H61.6816V70.3242Z" fill="black"/>
<path d="M39.2285 47.0351V47.8075C39.2285 56.7331 39.2285 65.6606 39.2285 74.5862C39.2285 77.0511 40.6578 78.4576 43.1601 78.4576C50.7458 78.4576 58.3295 78.4576 65.9151 78.4576C68.4686 78.4576 69.8782 77.0666 69.8802 74.5434C69.8802 65.6412 69.8802 56.7389 69.8802 47.8367V47.0332H39.2285V47.0351ZM61.6448 51.7256H67.4685V53.9492H61.6448V51.7256ZM67.4763 72.5961H61.6882V70.3296H67.4763V72.5961ZM68.6418 67.9231H60.4813V65.684H68.6418V67.9231ZM61.6823 63.2561V61.015H67.4822V63.2561H61.6823ZM68.6674 58.6162H60.5069V56.3732H68.6674V58.6162Z" fill="#FEDE00"/>
</svg>
