<svg width="94" height="115" viewBox="0 0 94 115" fill="none" xmlns="http://www.w3.org/2000/svg">
<path d="M9.648 103.192L9.888 100.968H9.792L9.104 102.76L6.72 106.936H6.016L3.504 102.744L2.8 100.968H2.72L3.04 103.176V109H0.96V97.8H2.96L5.952 102.92L6.48 104.2H6.544L7.024 102.888L9.856 97.8H11.84V109H9.648V103.192ZM13.6609 101.464C14.0875 101.272 14.5942 101.123 15.1809 101.016C15.7675 100.899 16.3809 100.84 17.0209 100.84C17.5755 100.84 18.0395 100.909 18.4129 101.048C18.7862 101.176 19.0795 101.363 19.2929 101.608C19.5169 101.853 19.6715 102.147 19.7569 102.488C19.8529 102.829 19.9009 103.213 19.9009 103.64C19.9009 104.109 19.8849 104.584 19.8529 105.064C19.8209 105.533 19.7995 105.997 19.7889 106.456C19.7889 106.915 19.8049 107.363 19.8369 107.8C19.8689 108.227 19.9489 108.632 20.0769 109.016H18.3809L18.0449 107.912H17.9649C17.7515 108.243 17.4529 108.531 17.0689 108.776C16.6955 109.011 16.2102 109.128 15.6129 109.128C15.2395 109.128 14.9035 109.075 14.6049 108.968C14.3062 108.851 14.0502 108.691 13.8369 108.488C13.6235 108.275 13.4582 108.029 13.3409 107.752C13.2235 107.464 13.1649 107.144 13.1649 106.792C13.1649 106.301 13.2715 105.891 13.4849 105.56C13.7089 105.219 14.0235 104.947 14.4289 104.744C14.8449 104.531 15.3355 104.387 15.9009 104.312C16.4769 104.227 17.1169 104.2 17.8209 104.232C17.8955 103.635 17.8529 103.208 17.6929 102.952C17.5329 102.685 17.1755 102.552 16.6209 102.552C16.2049 102.552 15.7622 102.595 15.2929 102.68C14.8342 102.765 14.4555 102.877 14.1569 103.016L13.6609 101.464ZM16.3009 107.416C16.7169 107.416 17.0475 107.325 17.2929 107.144C17.5382 106.952 17.7195 106.749 17.8369 106.536V105.496C17.5062 105.464 17.1862 105.459 16.8769 105.48C16.5782 105.501 16.3115 105.549 16.0769 105.624C15.8422 105.699 15.6555 105.805 15.5169 105.944C15.3782 106.083 15.3089 106.259 15.3089 106.472C15.3089 106.771 15.3942 107.005 15.5649 107.176C15.7462 107.336 15.9915 107.416 16.3009 107.416ZM26.5424 109V104.456C26.5424 103.805 26.4464 103.336 26.2544 103.048C26.073 102.76 25.7584 102.616 25.3104 102.616C24.9157 102.616 24.5797 102.733 24.3024 102.968C24.0357 103.192 23.8437 103.475 23.7264 103.816V109H21.6464V101H23.2944L23.5344 102.056H23.5984C23.8437 101.715 24.169 101.416 24.5744 101.16C24.9797 100.904 25.5024 100.776 26.1424 100.776C26.537 100.776 26.889 100.829 27.1984 100.936C27.5077 101.043 27.769 101.219 27.9824 101.464C28.1957 101.709 28.3557 102.045 28.4624 102.472C28.569 102.888 28.6224 103.405 28.6224 104.024V109H26.5424ZM32.3651 101V105.544C32.3651 106.195 32.4398 106.664 32.5891 106.952C32.7491 107.24 33.0531 107.384 33.5011 107.384C33.8958 107.384 34.2211 107.267 34.4771 107.032C34.7438 106.797 34.9411 106.509 35.0691 106.168V101H37.1491V106.568C37.1491 107.005 37.1705 107.437 37.2131 107.864C37.2558 108.28 37.3198 108.659 37.4051 109H35.8371L35.4691 107.816H35.4051C35.1598 108.221 34.8185 108.557 34.3811 108.824C33.9438 109.091 33.4265 109.224 32.8291 109.224C32.4238 109.224 32.0611 109.171 31.7411 109.064C31.4211 108.957 31.1545 108.781 30.9411 108.536C30.7278 108.291 30.5625 107.96 30.4451 107.544C30.3385 107.128 30.2851 106.605 30.2851 105.976V101H32.3651ZM38.2385 101H39.3425V100.552C39.3425 99.5387 39.5558 98.808 39.9825 98.36C40.4092 97.9013 41.0278 97.672 41.8385 97.672C42.6918 97.672 43.4012 97.7733 43.9665 97.976L43.5665 99.64C43.3212 99.5547 43.1025 99.5013 42.9105 99.48C42.7292 99.448 42.5372 99.432 42.3345 99.432C42.1212 99.432 41.9505 99.464 41.8225 99.528C41.7052 99.592 41.6145 99.6933 41.5505 99.832C41.4972 99.96 41.4598 100.125 41.4385 100.328C41.4278 100.52 41.4225 100.744 41.4225 101H43.1825V102.76H41.4225V109H39.3425V102.76H38.2385V101ZM44.0671 101.464C44.4938 101.272 45.0005 101.123 45.5871 101.016C46.1738 100.899 46.7871 100.84 47.4271 100.84C47.9818 100.84 48.4458 100.909 48.8191 101.048C49.1925 101.176 49.4858 101.363 49.6991 101.608C49.9231 101.853 50.0778 102.147 50.1631 102.488C50.2591 102.829 50.3071 103.213 50.3071 103.64C50.3071 104.109 50.2911 104.584 50.2591 105.064C50.2271 105.533 50.2058 105.997 50.1951 106.456C50.1951 106.915 50.2111 107.363 50.2431 107.8C50.2751 108.227 50.3551 108.632 50.4831 109.016H48.7871L48.4511 107.912H48.3711C48.1578 108.243 47.8591 108.531 47.4751 108.776C47.1018 109.011 46.6165 109.128 46.0191 109.128C45.6458 109.128 45.3098 109.075 45.0111 108.968C44.7125 108.851 44.4565 108.691 44.2431 108.488C44.0298 108.275 43.8645 108.029 43.7471 107.752C43.6298 107.464 43.5711 107.144 43.5711 106.792C43.5711 106.301 43.6778 105.891 43.8911 105.56C44.1151 105.219 44.4298 104.947 44.8351 104.744C45.2511 104.531 45.7418 104.387 46.3071 104.312C46.8831 104.227 47.5231 104.2 48.2271 104.232C48.3018 103.635 48.2591 103.208 48.0991 102.952C47.9391 102.685 47.5818 102.552 47.0271 102.552C46.6111 102.552 46.1685 102.595 45.6991 102.68C45.2405 102.765 44.8618 102.877 44.5631 103.016L44.0671 101.464ZM46.7071 107.416C47.1231 107.416 47.4538 107.325 47.6991 107.144C47.9445 106.952 48.1258 106.749 48.2431 106.536V105.496C47.9125 105.464 47.5925 105.459 47.2831 105.48C46.9845 105.501 46.7178 105.549 46.4831 105.624C46.2485 105.699 46.0618 105.805 45.9231 105.944C45.7845 106.083 45.7151 106.259 45.7151 106.472C45.7151 106.771 45.8005 107.005 45.9711 107.176C46.1525 107.336 46.3978 107.416 46.7071 107.416ZM57.7166 108.504C57.3966 108.739 57.0073 108.915 56.5486 109.032C56.1006 109.16 55.6366 109.224 55.1566 109.224C54.5166 109.224 53.9726 109.123 53.5246 108.92C53.0873 108.717 52.73 108.435 52.4526 108.072C52.1753 107.699 51.9726 107.251 51.8446 106.728C51.7273 106.205 51.6686 105.629 51.6686 105C51.6686 103.645 51.9726 102.605 52.5806 101.88C53.1886 101.144 54.074 100.776 55.2366 100.776C55.8233 100.776 56.2926 100.824 56.6446 100.92C57.0073 101.016 57.3326 101.139 57.6206 101.288L57.1246 102.984C56.8793 102.867 56.634 102.776 56.3886 102.712C56.154 102.648 55.882 102.616 55.5726 102.616C54.9966 102.616 54.5593 102.808 54.2606 103.192C53.962 103.565 53.8126 104.168 53.8126 105C53.8126 105.341 53.85 105.656 53.9246 105.944C53.9993 106.232 54.1113 106.483 54.2606 106.696C54.41 106.909 54.602 107.08 54.8366 107.208C55.082 107.325 55.3646 107.384 55.6846 107.384C56.0366 107.384 56.3353 107.341 56.5806 107.256C56.826 107.16 57.0446 107.048 57.2366 106.92L57.7166 108.504ZM60.9745 101V105.544C60.9745 106.195 61.0492 106.664 61.1985 106.952C61.3585 107.24 61.6625 107.384 62.1105 107.384C62.5052 107.384 62.8305 107.267 63.0865 107.032C63.3532 106.797 63.5505 106.509 63.6785 106.168V101H65.7585V106.568C65.7585 107.005 65.7798 107.437 65.8225 107.864C65.8652 108.28 65.9292 108.659 66.0145 109H64.4465L64.0785 107.816H64.0145C63.7692 108.221 63.4278 108.557 62.9905 108.824C62.5532 109.091 62.0358 109.224 61.4385 109.224C61.0332 109.224 60.6705 109.171 60.3505 109.064C60.0305 108.957 59.7638 108.781 59.5505 108.536C59.3372 108.291 59.1718 107.96 59.0545 107.544C58.9478 107.128 58.8945 106.605 58.8945 105.976V101H60.9745ZM66.7519 101H67.8559V99.496L69.9359 98.904V101H71.8879V102.76H69.9359V105.832C69.9359 106.387 69.9892 106.787 70.0959 107.032C70.2132 107.267 70.4265 107.384 70.7359 107.384C70.9492 107.384 71.1305 107.363 71.2799 107.32C71.4399 107.277 71.6159 107.213 71.8079 107.128L72.1759 108.728C71.8879 108.867 71.5519 108.984 71.1679 109.08C70.7839 109.176 70.3945 109.224 69.9999 109.224C69.2639 109.224 68.7199 109.037 68.3679 108.664C68.0265 108.28 67.8559 107.656 67.8559 106.792V102.76H66.7519V101ZM73.354 101H75.434V109H73.354V101ZM73.05 98.744C73.05 98.4347 73.162 98.1733 73.386 97.96C73.6207 97.736 73.9407 97.624 74.346 97.624C74.7513 97.624 75.0767 97.736 75.322 97.96C75.578 98.1733 75.706 98.4347 75.706 98.744C75.706 99.0533 75.578 99.3147 75.322 99.528C75.0767 99.7307 74.7513 99.832 74.346 99.832C73.9407 99.832 73.6207 99.7307 73.386 99.528C73.162 99.3147 73.05 99.0533 73.05 98.744ZM82.3549 109V104.456C82.3549 103.805 82.2589 103.336 82.0669 103.048C81.8855 102.76 81.5709 102.616 81.1229 102.616C80.7282 102.616 80.3922 102.733 80.1149 102.968C79.8482 103.192 79.6562 103.475 79.5389 103.816V109H77.4589V101H79.1069L79.3469 102.056H79.4109C79.6562 101.715 79.9815 101.416 80.3869 101.16C80.7922 100.904 81.3149 100.776 81.9549 100.776C82.3495 100.776 82.7015 100.829 83.0109 100.936C83.3202 101.043 83.5815 101.219 83.7949 101.464C84.0082 101.709 84.1682 102.045 84.2749 102.472C84.3815 102.888 84.4349 103.405 84.4349 104.024V109H82.3549ZM92.9456 109C92.9456 110.163 92.631 111.016 92.0016 111.56C91.3723 112.115 90.4923 112.392 89.3616 112.392C88.5936 112.392 87.9856 112.339 87.5376 112.232C87.1003 112.125 86.7696 112.013 86.5456 111.896L86.9776 110.248C87.223 110.344 87.5056 110.44 87.8256 110.536C88.1563 110.632 88.5616 110.68 89.0416 110.68C89.767 110.68 90.2576 110.52 90.5136 110.2C90.7803 109.891 90.9136 109.453 90.9136 108.888V108.376H90.8496C90.4763 108.877 89.815 109.128 88.8656 109.128C87.831 109.128 87.0576 108.808 86.5456 108.168C86.0443 107.528 85.7936 106.525 85.7936 105.16C85.7936 103.731 86.135 102.648 86.8176 101.912C87.5003 101.176 88.4923 100.808 89.7936 100.808C90.4763 100.808 91.0843 100.856 91.6176 100.952C92.1616 101.048 92.6043 101.16 92.9456 101.288V109ZM89.4256 107.464C89.831 107.464 90.1403 107.373 90.3536 107.192C90.5776 107.011 90.7483 106.739 90.8656 106.376V102.776C90.535 102.637 90.1243 102.568 89.6336 102.568C89.1003 102.568 88.6843 102.771 88.3856 103.176C88.087 103.571 87.9376 104.205 87.9376 105.08C87.9376 105.859 88.0656 106.451 88.3216 106.856C88.5776 107.261 88.9456 107.464 89.4256 107.464Z" fill="black"/>
<path d="M40.0395 6.21786H52.9688C53.5804 6.64268 53.7671 7.22569 53.734 7.96084C53.6843 9.06057 53.7355 10.1648 53.7129 11.266C53.7039 11.6788 53.7988 11.8807 54.2522 11.9771C55.0566 12.1488 55.8685 12.3507 56.6263 12.6656C59.0666 13.6779 61.4828 14.746 64.0452 15.8517C64.8993 14.993 65.9191 13.9641 66.9434 12.9397C67.9015 11.9816 68.3986 11.9756 69.3356 12.9126C71.922 15.4962 74.5085 18.0828 77.0919 20.6694C78.0259 21.6049 78.0183 22.1081 77.0633 23.0632C76.039 24.0891 75.0116 25.1105 73.9647 26.156C75.8672 29.2126 77.2395 32.4425 78.0907 35.8938C78.1313 36.061 78.4627 36.2614 78.6631 36.2674C79.7883 36.3036 80.9181 36.3217 82.0434 36.2719C82.78 36.2388 83.3615 36.4256 83.7863 37.0372V49.9673C83.36 50.5744 82.7815 50.7747 82.0449 50.731C81.1471 50.6783 80.2448 50.719 79.344 50.719C78.175 50.719 78.178 50.719 77.8873 51.8232C77.7788 52.233 77.6628 52.6428 77.5227 53.0435C77.0738 54.33 76.6114 55.6105 76.1459 56.9211C76.3191 56.9693 76.4607 57.0085 76.6008 57.0492C79.713 57.938 81.8973 59.8798 83.1159 62.8732C83.4127 63.6023 83.5663 64.3902 83.7848 65.151V67.5568C83.7366 67.6939 83.6703 67.828 83.6432 67.9696C83.0135 71.2462 81.2134 73.6656 78.1886 75.047C76.9654 75.6059 75.5825 75.8183 74.162 76.2205C74.162 77.0913 74.165 78.1383 74.162 79.1853C74.159 80.3769 73.7658 80.7851 72.6059 80.7851C55.1982 80.7866 37.7905 80.7866 20.3828 80.7851C19.253 80.7851 18.8478 80.3754 18.8417 79.2455C18.8372 78.1744 18.8417 77.1048 18.8417 76.0473C13.4429 75.2624 10.1861 72.5327 9.38771 68.179C9.01111 66.1212 9.2431 64.1296 10.1499 62.248C11.5253 59.3917 13.8421 57.6653 16.7855 56.9317C16.1574 54.9537 15.5654 53.048 14.9282 51.1574C14.8634 50.9646 14.5305 50.7461 14.3166 50.7386C13.116 50.6979 11.9124 50.725 10.7103 50.7175C9.6694 50.7115 9.22653 50.2897 9.22502 49.2758C9.219 45.4177 9.21749 41.5612 9.22502 37.7031C9.22653 36.7269 9.67242 36.296 10.6606 36.2885C11.8371 36.2795 13.0151 36.2659 14.1916 36.296C14.6661 36.3081 14.8995 36.1981 15.0035 35.6844C15.1617 34.9026 15.362 34.1162 15.6678 33.381C16.6816 30.9421 17.7496 28.5242 18.8643 25.9421C17.9906 25.0804 16.9377 24.0484 15.8938 23.0075C15.0035 22.1187 14.9975 21.5929 15.8636 20.7252C18.4832 18.1009 21.1028 15.4796 23.7269 12.8599C24.5961 11.9922 25.1233 11.9997 26.0121 12.8855C27.056 13.9265 28.0954 14.972 29.1589 16.0385C32.2169 14.1389 35.4435 12.7605 38.8977 11.9138C39.0649 11.8731 39.2652 11.5402 39.2713 11.3384C39.3074 10.213 39.3255 9.08316 39.2758 7.95783C39.2426 7.22117 39.4279 6.63967 40.041 6.21484L40.0395 6.21786ZM64.5438 56.6681C65.2367 56.888 65.3663 56.3698 65.5817 56.0459C72.9931 44.8664 69.093 29.6224 57.2243 23.357C55.0024 22.1849 52.666 21.3654 50.1127 20.9858C50.1127 22.7981 50.1157 24.5501 50.1127 26.3006C50.1097 27.4681 49.709 27.8598 48.5219 27.8673C48.2598 27.8689 47.9977 27.8673 47.7492 27.8673V30.2988C48.888 30.0969 49.7783 30.4268 50.4817 31.3232C51.1084 32.1231 52.1222 32.7543 52.428 33.6447C53.148 35.7326 51.9911 37.9441 49.724 39.4521C49.1908 38.9309 48.656 38.4081 47.9796 37.7453C48.6153 37.1668 49.236 36.626 49.828 36.0565C50.2031 35.695 50.2498 34.5742 49.9214 34.193C49.0944 33.2334 48.2372 32.3265 46.7745 32.6745C46.6555 32.7031 46.5215 32.6986 46.401 32.6745C45.0497 32.4199 44.063 32.9622 43.2451 34.0137C42.7781 34.6133 42.7194 35.6181 43.2767 36.1559C43.8326 36.6923 44.4186 37.1969 44.9593 37.6865C44.3071 38.3705 43.7799 38.9218 43.2104 39.5169C42.391 38.6898 41.5835 37.9065 40.8213 37.0809C40.636 36.8806 40.5291 36.5491 40.505 36.2674C40.3564 34.4737 40.9243 32.9391 42.2087 31.6637C42.2449 31.629 42.284 31.5959 42.3141 31.5567C43.0357 30.6393 43.9034 30.0442 45.1446 30.2491C45.1778 30.2551 45.2215 30.1964 45.2395 30.1828V27.8658C44.8539 27.8658 44.5285 27.8764 44.2031 27.8643C43.3641 27.8312 42.9287 27.3883 42.8971 26.5432C42.8866 26.2675 42.8941 25.9918 42.8941 25.7161C42.8941 24.1479 42.8941 22.5796 42.8941 21.0009C40.0305 21.3805 36.7646 22.5555 34.249 24.2639C26.4459 29.5621 22.9346 36.9378 23.8384 46.3291C24.1864 49.9507 25.5271 53.2649 27.5878 56.2703C27.749 56.5053 28.0593 56.6394 28.4615 56.9422C28.4615 56.4029 28.4615 56.1302 28.4615 55.8561C28.4615 52.6488 28.4585 49.443 28.4615 46.2357C28.4615 45.1104 28.8742 44.7037 30.007 44.7022C34.5909 44.6991 39.1748 44.6991 43.7588 44.7022C44.8855 44.7022 45.2938 45.1134 45.2953 46.2448C45.2998 49.4506 45.2953 52.6578 45.2953 55.8651C45.2953 56.1317 45.2953 56.3999 45.2953 56.6771H47.701C47.701 56.3532 47.701 56.082 47.701 55.8094C47.701 52.6021 47.6979 49.3963 47.7025 46.189C47.704 45.1782 48.1258 44.7067 49.0672 44.7052C53.7762 44.6961 58.4851 44.6961 63.1956 44.7052C64.0768 44.7067 64.5257 45.1707 64.5332 46.0655C64.5468 47.6443 64.5378 49.2216 64.5378 50.8003C64.5378 52.7527 64.5378 54.7036 64.5378 56.6635L64.5438 56.6681ZM24.9275 56.7328C17.9379 44.9944 21.7054 31.8053 29.5325 24.8032C37.8447 17.3657 49.718 16.0867 59.3121 21.7601C65.3482 25.3304 69.2844 30.588 70.9926 37.4003C72.6948 44.19 71.6147 50.6286 68.0491 56.7343C69.8176 56.7343 71.4445 56.7524 73.0714 56.7132C73.2898 56.7087 73.6197 56.4632 73.695 56.2553C74.4286 54.2381 75.1999 52.2285 75.7949 50.1691C76.3071 48.4005 76.2845 48.3147 78.1645 48.3147H81.3384V38.6928C80.0489 38.6928 78.8017 38.6959 77.5544 38.6928C76.4999 38.6898 76.1715 38.4383 75.9516 37.4108C75.1622 33.726 73.7779 30.2913 71.7172 27.1307C70.9881 26.0114 71.0318 25.6905 71.9898 24.7339C72.9403 23.7848 73.8939 22.8403 74.7329 22.0057C72.4493 19.7219 70.2454 17.5149 68.0024 15.2717C67.0489 16.2314 66.023 17.2588 65.0047 18.2907C64.4745 18.827 63.8855 18.949 63.2483 18.5242C59.9147 16.3067 56.2933 14.7957 52.3647 14.0138C51.6597 13.8737 51.3072 13.4007 51.3133 12.6656C51.3208 11.5884 51.3148 10.5113 51.3148 9.43417C51.3148 9.17205 51.3148 8.90992 51.3148 8.67039H41.6935C41.6935 9.96144 41.6965 11.2088 41.6935 12.4577C41.6905 13.5092 41.4359 13.8361 40.4056 14.0575C36.7737 14.8394 33.3798 16.1922 30.2556 18.2154C28.9736 19.0455 28.7221 19.0078 27.6239 17.9066C26.7111 16.9906 25.8027 16.0732 25.0179 15.2838C22.7267 17.5721 20.5214 19.7761 18.2814 22.0132C19.2033 22.9291 20.2005 23.9144 21.1887 24.9071C21.9238 25.6453 21.9765 26.0777 21.3981 26.9574C19.2831 30.1738 17.849 33.6688 17.0522 37.4319C16.8428 38.4172 16.4963 38.6913 15.5081 38.6959C14.2383 38.7019 12.9669 38.6959 11.6744 38.6959V48.3177C12.9699 48.3177 14.2187 48.3147 15.4659 48.3177C16.5129 48.3207 16.7599 48.6054 17.0733 49.6087C17.7647 51.8232 18.5254 54.0182 19.2922 56.2086C19.369 56.427 19.6778 56.7072 19.8857 56.7132C21.5367 56.7539 23.1892 56.7358 24.929 56.7358L24.9275 56.7328ZM13.4926 71.1663C15.1602 72.8973 17.0326 73.5782 19.2183 73.5782C37.4094 73.5676 55.5989 73.5722 73.7899 73.5722C74.0159 73.5722 74.2403 73.5722 74.4663 73.5631C78.99 73.3929 82.2693 69.0211 81.1667 64.6328C80.3261 61.2884 77.4715 59.1417 73.8381 59.1417C55.623 59.1387 37.4064 59.1417 19.1912 59.1417C18.9412 59.1417 18.6896 59.1387 18.4395 59.1552C16.7313 59.2742 15.2355 59.8979 13.9731 61.0609C13.8451 61.1784 13.7532 61.3351 13.586 61.546C17.7677 61.546 21.8259 61.5385 25.8841 61.549C28.7221 61.555 30.8702 63.6445 30.8657 66.3697C30.8596 69.0904 28.71 71.1543 25.8585 71.1678C24.4801 71.1739 23.1018 71.1678 21.725 71.1678C19.0481 71.1678 16.3728 71.1678 13.4926 71.1678V71.1663ZM71.7232 76.0277H21.3077V78.3477H71.7232V76.0277ZM42.8384 56.7012V47.1517H40.4899C40.4899 48.2363 40.4929 49.2818 40.4899 50.3273C40.4854 51.5144 40.0922 51.9181 38.9278 51.9212C37.6504 51.9257 36.373 51.9212 35.0956 51.9212C33.5997 51.9212 33.2759 51.6033 33.2759 50.133C33.2759 49.1402 33.2759 48.149 33.2759 47.1682H30.9109V56.6982H42.8414L42.8384 56.7012ZM62.0839 56.6982V47.1487H59.7324C59.7324 48.2544 59.7369 49.3255 59.7324 50.3951C59.7264 51.5114 59.3121 51.9181 58.1778 51.9212C56.801 51.9257 55.4227 51.9272 54.0458 51.9212C52.9296 51.9166 52.5244 51.5024 52.5199 50.3665C52.5153 49.2984 52.5199 48.2303 52.5199 47.1667H50.1518V56.6967H62.0869L62.0839 56.6982ZM21.8952 63.9518C18.6504 63.9518 15.5081 63.9458 12.3673 63.9714C12.2122 63.9714 11.9787 64.2396 11.9184 64.4279C11.5358 65.624 11.5584 66.8337 11.8265 68.057C11.9395 68.5752 12.1444 68.7846 12.7243 68.7786C15.5503 68.7424 18.3778 68.7635 21.2037 68.7605C21.4071 68.7605 21.612 68.7289 21.8861 68.7048C21.02 67.1004 21.0757 65.5638 21.8967 63.9533L21.8952 63.9518ZM28.46 66.3773C28.472 65.0726 27.401 63.9729 26.098 63.9518C24.7904 63.9307 23.6848 64.9913 23.6546 66.2944C23.6245 67.6306 24.7196 68.756 26.0528 68.7575C27.3573 68.759 28.4479 67.6803 28.4585 66.3757L28.46 66.3773ZM47.707 20.7312H45.3495V25.4088H47.707V20.7312ZM38.027 49.4897V47.1502H35.7237V49.4897H38.027ZM54.9557 49.4777H57.2815V47.1652H54.9557V49.4777Z" fill="black"/>
<path d="M24.9206 56.7315C23.1808 56.7315 21.5283 56.7495 19.8773 56.7089C19.6694 56.7043 19.3606 56.4226 19.2838 56.2042C18.517 54.0138 17.7578 51.8204 17.0649 49.6044C16.7516 48.601 16.5045 48.3163 15.4576 48.3133C14.2088 48.3088 12.9615 48.3133 11.666 48.3133V38.6915C12.9585 38.6915 14.2299 38.696 15.4998 38.6915C16.4894 38.687 16.8359 38.4128 17.0438 37.4276C17.8407 33.6644 19.2747 30.1694 21.3897 26.9531C21.9681 26.0733 21.9139 25.6409 21.1803 24.9028C20.1921 23.91 19.1934 22.9248 18.273 22.0088C20.5115 19.7717 22.7183 17.5678 25.0095 15.2794C25.7943 16.0688 26.7027 16.9878 27.6156 17.9022C28.7137 19.0049 28.9653 19.0426 30.2472 18.211C33.3714 16.1878 36.7653 14.835 40.3972 14.0532C41.4275 13.8317 41.6821 13.5033 41.6851 12.4533C41.6897 11.2059 41.6851 9.95706 41.6851 8.66602H51.3064C51.3064 8.90554 51.3064 9.16767 51.3064 9.4298C51.3064 10.5069 51.3124 11.584 51.3049 12.6612C51.2989 13.3963 51.6529 13.8679 52.3563 14.0095C56.285 14.7913 59.9063 16.3023 63.2399 18.5198C63.8786 18.9447 64.4676 18.8241 64.9964 18.2863C66.0147 17.2529 67.0405 16.227 67.9941 15.2674C70.2371 17.5105 72.4409 19.7175 74.7246 22.0013C73.8855 22.8359 72.932 23.7819 71.9814 24.7295C71.0219 25.6861 70.9797 26.007 71.7088 27.1263C73.7695 30.2869 75.1539 33.7231 75.9432 37.4065C76.1632 38.4339 76.4915 38.6855 77.546 38.6885C78.7933 38.6915 80.0406 38.6885 81.33 38.6885V48.3103H78.1561C76.2761 48.3103 76.2972 48.3947 75.7866 50.1648C75.19 52.2241 74.4188 54.2337 73.6867 56.2509C73.6113 56.4588 73.2799 56.7043 73.063 56.7089C71.4361 56.748 69.8092 56.73 68.0408 56.73C71.6063 50.6257 72.6864 44.1856 70.9842 37.3959C69.276 30.5837 65.3398 25.3276 59.3038 21.7557C49.7111 16.0809 37.8378 17.3614 29.5241 24.7988C21.697 31.8009 17.931 44.99 24.9191 56.7285L24.9206 56.7315Z" fill="#FEDE00"/>
<path d="M42.8348 56.7008H30.9043V47.1709H33.2693C33.2693 48.1516 33.2693 49.1428 33.2693 50.1356C33.2693 51.6044 33.5932 51.9238 35.089 51.9238C36.3664 51.9238 37.6438 51.9268 38.9212 51.9238C40.0857 51.9193 40.4804 51.517 40.4834 50.3299C40.4864 49.2844 40.4834 48.2374 40.4834 47.1543H42.8318V56.7038L42.8348 56.7008Z" fill="#FEDE00"/>
<path d="M62.0893 56.7023H50.1543V47.1724H52.5223C52.5223 48.2359 52.5193 49.304 52.5223 50.3721C52.5268 51.5065 52.9321 51.9208 54.0483 51.9268C55.4251 51.9328 56.8035 51.9313 58.1803 51.9268C59.3146 51.9238 59.7288 51.517 59.7349 50.4007C59.7409 49.3296 59.7349 48.26 59.7349 47.1543H62.0863V56.7038L62.0893 56.7023Z" fill="#FEDE00"/>
<path d="M21.8993 63.9536C21.0783 65.5641 21.0225 67.1007 21.8887 68.705C21.6146 68.7276 21.4112 68.7608 21.2063 68.7608C18.3804 68.7638 15.5529 68.7442 12.7269 68.7789C12.1485 68.7864 11.9436 68.5755 11.8291 68.0573C11.561 66.8355 11.5399 65.6243 11.921 64.4282C11.9813 64.2414 12.2147 63.9732 12.3699 63.9717C15.5107 63.9446 18.653 63.9521 21.8977 63.9521L21.8993 63.9536Z" fill="#FEDE00"/>
<path d="M28.4627 66.3754C28.4507 67.6785 27.36 68.7586 26.057 68.7571C24.7224 68.7556 23.6272 67.6303 23.6589 66.294C23.689 64.9909 24.7947 63.9304 26.1022 63.9515C27.4052 63.9726 28.4763 65.0708 28.4642 66.3769L28.4627 66.3754Z" fill="#FEDE00"/>
<path d="M47.7051 20.7305V25.4081H45.3477V20.7305H47.7051Z" fill="#FEDE00"/>
<path d="M38.0259 49.4938H35.7227V47.1543H38.0259V49.4938Z" fill="#FEDE00"/>
<path d="M54.9609 49.4784V47.166H57.2868V49.4784H54.9609Z" fill="#FEDE00"/>
<path d="M42.8883 66.3605C42.8883 69.0119 40.7116 71.1767 38.0573 71.1661C35.4091 71.1556 33.255 68.9712 33.2716 66.3153C33.2897 63.6971 35.4438 61.5549 38.0649 61.5488C40.7221 61.5428 42.8898 63.7046 42.8883 66.3605ZM38.0724 63.9547C36.7664 63.9577 35.6833 65.0393 35.6773 66.3454C35.6712 67.6516 36.7438 68.7453 38.0483 68.7603C39.3815 68.7769 40.4962 67.6651 40.4811 66.3304C40.4676 65.0258 39.3769 63.9502 38.0709 63.9532L38.0724 63.9547Z" fill="black"/>
<path d="M54.9141 66.3305C54.9261 68.9864 52.7629 71.1633 50.1132 71.1663C47.462 71.1693 45.2928 68.997 45.2988 66.3456C45.3034 63.7228 47.4439 61.567 50.062 61.549C52.7208 61.5294 54.9035 63.6806 54.9156 66.332L54.9141 66.3305ZM52.5084 66.3802C52.5204 65.0741 51.4524 63.9759 50.1479 63.9533C48.8403 63.9307 47.7347 64.9912 47.703 66.2943C47.6714 67.6306 48.765 68.7574 50.0997 68.7604C51.4027 68.7634 52.4963 67.6848 52.5084 66.3817V66.3802Z" fill="black"/>
<path d="M62.1031 61.5489C64.7618 61.5353 66.937 63.6911 66.9431 66.344C66.9491 68.9984 64.7814 71.1692 62.1287 71.1677C59.5091 71.1647 57.3474 69.024 57.3263 66.4088C57.3052 63.7483 59.4533 61.564 62.1016 61.5489H62.1031ZM62.1392 63.9547C60.8317 63.9532 59.7456 65.0273 59.7335 66.335C59.7215 67.6411 60.791 68.7393 62.094 68.7604C63.4272 68.783 64.5464 67.6757 64.5389 66.341C64.5313 65.0364 63.4452 63.9562 62.1392 63.9532V63.9547Z" fill="black"/>
<path d="M78.9708 66.3605C78.9693 69.0119 76.7941 71.1767 74.1398 71.1661C71.4916 71.1556 69.3375 68.9712 69.3556 66.3153C69.3737 63.6971 71.5278 61.5549 74.1489 61.5488C76.8061 61.5428 78.9738 63.7061 78.9723 66.362L78.9708 66.3605ZM74.188 63.9532C72.8775 63.9396 71.7824 65.0032 71.7598 66.3108C71.7372 67.6169 72.7962 68.7257 74.0977 68.7588C75.4308 68.7935 76.5606 67.6967 76.5651 66.3635C76.5696 65.0589 75.4926 63.9667 74.188 63.9532Z" fill="black"/>
<path d="M38.0792 63.9512C39.3852 63.9482 40.4759 65.0238 40.4894 66.3284C40.503 67.6616 39.3898 68.7749 38.0566 68.7583C36.7521 68.7418 35.6795 67.6496 35.6856 66.3435C35.6916 65.0373 36.7747 63.9557 38.0807 63.9527L38.0792 63.9512Z" fill="#FEDE00"/>
<path d="M52.5209 66.38C52.5088 67.6831 51.4167 68.7617 50.1122 68.7587C48.7775 68.7557 47.6839 67.6288 47.7155 66.2926C47.7471 64.9895 48.8543 63.9289 50.1604 63.9515C51.4634 63.9741 52.5329 65.0723 52.5209 66.3784V66.38Z" fill="#FEDE00"/>
<path d="M62.1363 63.9512C63.4408 63.9527 64.5284 65.0343 64.5359 66.3389C64.5435 67.6722 63.4257 68.7794 62.0911 68.7583C60.788 68.7372 59.7185 67.639 59.7306 66.3329C59.7426 65.0253 60.8287 63.9512 62.1363 63.9527V63.9512Z" fill="#FEDE00"/>
<path d="M74.1865 63.9513C75.491 63.9649 76.5665 65.057 76.5635 66.3617C76.559 67.6949 75.4307 68.7916 74.0961 68.7569C72.7931 68.7238 71.7356 67.615 71.7582 66.3089C71.7808 65.0013 72.8759 63.9377 74.1865 63.9513Z" fill="#FEDE00"/>
</svg>
