<svg width="112" height="114" viewBox="0 0 112 114" fill="none" xmlns="http://www.w3.org/2000/svg">
<path d="M0.96 96.912C1.408 96.8267 1.89867 96.7627 2.432 96.72C2.976 96.6667 3.51467 96.64 4.048 96.64C4.60267 96.64 5.15733 96.688 5.712 96.784C6.27733 96.8693 6.784 97.0507 7.232 97.328C7.68 97.5947 8.04267 97.9733 8.32 98.464C8.608 98.944 8.752 99.5733 8.752 100.352C8.752 101.056 8.62933 101.653 8.384 102.144C8.13867 102.624 7.81333 103.019 7.408 103.328C7.00267 103.637 6.53867 103.861 6.016 104C5.504 104.139 4.97067 104.208 4.416 104.208C4.36267 104.208 4.27733 104.208 4.16 104.208C4.04267 104.208 3.92 104.208 3.792 104.208C3.664 104.197 3.536 104.187 3.408 104.176C3.29067 104.165 3.20533 104.155 3.152 104.144V108H0.96V96.912ZM4.224 98.528C4.01067 98.528 3.808 98.5387 3.616 98.56C3.424 98.5707 3.26933 98.5867 3.152 98.608V102.24C3.19467 102.251 3.25867 102.261 3.344 102.272C3.42933 102.283 3.52 102.293 3.616 102.304C3.712 102.304 3.80267 102.304 3.888 102.304C3.984 102.304 4.05333 102.304 4.096 102.304C4.384 102.304 4.66667 102.277 4.944 102.224C5.232 102.171 5.488 102.075 5.712 101.936C5.936 101.787 6.112 101.584 6.24 101.328C6.37867 101.072 6.448 100.736 6.448 100.32C6.448 99.968 6.384 99.68 6.256 99.456C6.128 99.2213 5.95733 99.0347 5.744 98.896C5.54133 98.7573 5.30667 98.6613 5.04 98.608C4.77333 98.5547 4.50133 98.528 4.224 98.528ZM14.9643 108V103.456C14.9643 102.805 14.8736 102.336 14.6923 102.048C14.5109 101.76 14.1803 101.616 13.7003 101.616C13.3483 101.616 13.0229 101.739 12.7243 101.984C12.4363 102.219 12.2443 102.523 12.1483 102.896V108H10.0683V96.8H12.1483V100.896H12.2123C12.4683 100.555 12.7829 100.283 13.1562 100.08C13.5296 99.8773 14.0043 99.776 14.5803 99.776C14.9856 99.776 15.3429 99.8293 15.6523 99.936C15.9616 100.043 16.2176 100.219 16.4203 100.464C16.6336 100.709 16.7883 101.045 16.8843 101.472C16.9909 101.888 17.0443 102.405 17.0443 103.024V108H14.9643ZM18.739 100.464C19.1657 100.272 19.6723 100.123 20.259 100.016C20.8457 99.8987 21.459 99.84 22.099 99.84C22.6537 99.84 23.1177 99.9093 23.491 100.048C23.8643 100.176 24.1577 100.363 24.371 100.608C24.595 100.853 24.7497 101.147 24.835 101.488C24.931 101.829 24.979 102.213 24.979 102.64C24.979 103.109 24.963 103.584 24.931 104.064C24.899 104.533 24.8777 104.997 24.867 105.456C24.867 105.915 24.883 106.363 24.915 106.8C24.947 107.227 25.027 107.632 25.155 108.016H23.459L23.123 106.912H23.043C22.8297 107.243 22.531 107.531 22.147 107.776C21.7737 108.011 21.2883 108.128 20.691 108.128C20.3177 108.128 19.9817 108.075 19.683 107.968C19.3843 107.851 19.1283 107.691 18.915 107.488C18.7017 107.275 18.5363 107.029 18.419 106.752C18.3017 106.464 18.243 106.144 18.243 105.792C18.243 105.301 18.3497 104.891 18.563 104.56C18.787 104.219 19.1017 103.947 19.507 103.744C19.923 103.531 20.4137 103.387 20.979 103.312C21.555 103.227 22.195 103.2 22.899 103.232C22.9737 102.635 22.931 102.208 22.771 101.952C22.611 101.685 22.2537 101.552 21.699 101.552C21.283 101.552 20.8403 101.595 20.371 101.68C19.9123 101.765 19.5337 101.877 19.235 102.016L18.739 100.464ZM21.379 106.416C21.795 106.416 22.1257 106.325 22.371 106.144C22.6163 105.952 22.7977 105.749 22.915 105.536V104.496C22.5843 104.464 22.2643 104.459 21.955 104.48C21.6563 104.501 21.3897 104.549 21.155 104.624C20.9203 104.699 20.7337 104.805 20.595 104.944C20.4563 105.083 20.387 105.259 20.387 105.472C20.387 105.771 20.4723 106.005 20.643 106.176C20.8243 106.336 21.0697 106.416 21.379 106.416ZM31.1405 101.952C30.8098 101.835 30.5112 101.776 30.2445 101.776C29.8712 101.776 29.5565 101.877 29.3005 102.08C29.0552 102.272 28.8898 102.523 28.8045 102.832V108H26.7245V100H28.3405L28.5805 101.056H28.6445C28.8258 100.661 29.0712 100.357 29.3805 100.144C29.6898 99.9307 30.0525 99.824 30.4685 99.824C30.7458 99.824 31.0605 99.8827 31.4125 100L31.1405 101.952ZM36.8779 108V103.648C36.8779 102.912 36.8085 102.389 36.6699 102.08C36.5312 101.771 36.2432 101.616 35.8059 101.616C35.4432 101.616 35.1499 101.717 34.9259 101.92C34.7019 102.112 34.5312 102.363 34.4139 102.672V108H32.3339V100H33.9499L34.1899 101.056H34.2539C34.4992 100.715 34.8085 100.416 35.1819 100.16C35.5659 99.904 36.0565 99.776 36.6539 99.776C37.1659 99.776 37.5819 99.8827 37.9019 100.096C38.2325 100.299 38.4885 100.645 38.6699 101.136C38.9152 100.72 39.2299 100.389 39.6139 100.144C39.9979 99.8987 40.4619 99.776 41.0059 99.776C41.4539 99.776 41.8325 99.8293 42.1419 99.936C42.4619 100.043 42.7179 100.229 42.9099 100.496C43.1125 100.752 43.2619 101.099 43.3579 101.536C43.4539 101.973 43.5019 102.528 43.5019 103.2V108H41.4219V103.504C41.4219 102.875 41.3525 102.405 41.2139 102.096C41.0859 101.776 40.7925 101.616 40.3339 101.616C39.9605 101.616 39.6619 101.717 39.4379 101.92C39.2245 102.123 39.0645 102.4 38.9579 102.752V108H36.8779ZM45.1609 100.464C45.5875 100.272 46.0942 100.123 46.6809 100.016C47.2675 99.8987 47.8809 99.84 48.5209 99.84C49.0755 99.84 49.5395 99.9093 49.9129 100.048C50.2862 100.176 50.5795 100.363 50.7929 100.608C51.0169 100.853 51.1715 101.147 51.2569 101.488C51.3529 101.829 51.4009 102.213 51.4009 102.64C51.4009 103.109 51.3849 103.584 51.3529 104.064C51.3209 104.533 51.2995 104.997 51.2889 105.456C51.2889 105.915 51.3049 106.363 51.3369 106.8C51.3689 107.227 51.4489 107.632 51.5769 108.016H49.8809L49.5449 106.912H49.4649C49.2515 107.243 48.9529 107.531 48.5689 107.776C48.1955 108.011 47.7102 108.128 47.1129 108.128C46.7395 108.128 46.4035 108.075 46.1049 107.968C45.8062 107.851 45.5502 107.691 45.3369 107.488C45.1235 107.275 44.9582 107.029 44.8409 106.752C44.7235 106.464 44.6649 106.144 44.6649 105.792C44.6649 105.301 44.7715 104.891 44.9849 104.56C45.2089 104.219 45.5235 103.947 45.9289 103.744C46.3449 103.531 46.8355 103.387 47.4009 103.312C47.9769 103.227 48.6169 103.2 49.3209 103.232C49.3955 102.635 49.3529 102.208 49.1929 101.952C49.0329 101.685 48.6755 101.552 48.1209 101.552C47.7049 101.552 47.2622 101.595 46.7929 101.68C46.3342 101.765 45.9555 101.877 45.6569 102.016L45.1609 100.464ZM47.8009 106.416C48.2169 106.416 48.5475 106.325 48.7929 106.144C49.0382 105.952 49.2195 105.749 49.3369 105.536V104.496C49.0062 104.464 48.6862 104.459 48.3769 104.48C48.0782 104.501 47.8115 104.549 47.5769 104.624C47.3422 104.699 47.1555 104.805 47.0169 104.944C46.8782 105.083 46.8089 105.259 46.8089 105.472C46.8089 105.771 46.8942 106.005 47.0649 106.176C47.2462 106.336 47.4915 106.416 47.8009 106.416ZM58.8104 107.504C58.4904 107.739 58.101 107.915 57.6424 108.032C57.1944 108.16 56.7304 108.224 56.2504 108.224C55.6104 108.224 55.0664 108.123 54.6184 107.92C54.181 107.717 53.8237 107.435 53.5464 107.072C53.269 106.699 53.0664 106.251 52.9384 105.728C52.821 105.205 52.7624 104.629 52.7624 104C52.7624 102.645 53.0664 101.605 53.6744 100.88C54.2824 100.144 55.1677 99.776 56.3304 99.776C56.917 99.776 57.3864 99.824 57.7384 99.92C58.101 100.016 58.4264 100.139 58.7144 100.288L58.2184 101.984C57.973 101.867 57.7277 101.776 57.4824 101.712C57.2477 101.648 56.9757 101.616 56.6664 101.616C56.0904 101.616 55.653 101.808 55.3544 102.192C55.0557 102.565 54.9064 103.168 54.9064 104C54.9064 104.341 54.9437 104.656 55.0184 104.944C55.093 105.232 55.205 105.483 55.3544 105.696C55.5037 105.909 55.6957 106.08 55.9304 106.208C56.1757 106.325 56.4584 106.384 56.7784 106.384C57.1304 106.384 57.429 106.341 57.6744 106.256C57.9197 106.16 58.1384 106.048 58.3304 105.92L58.8104 107.504ZM66.2026 107.312C65.8826 107.568 65.4453 107.787 64.8906 107.968C64.3466 108.139 63.7653 108.224 63.1466 108.224C61.856 108.224 60.912 107.851 60.3146 107.104C59.7173 106.347 59.4186 105.312 59.4186 104C59.4186 102.592 59.7546 101.536 60.4266 100.832C61.0986 100.128 62.0426 99.776 63.2586 99.776C63.664 99.776 64.0586 99.8293 64.4426 99.936C64.8266 100.043 65.168 100.219 65.4666 100.464C65.7653 100.709 66.0053 101.04 66.1866 101.456C66.368 101.872 66.4586 102.389 66.4586 103.008C66.4586 103.232 66.4426 103.472 66.4106 103.728C66.3893 103.984 66.352 104.251 66.2986 104.528H61.4986C61.5306 105.2 61.7013 105.707 62.0106 106.048C62.3306 106.389 62.8426 106.56 63.5466 106.56C63.984 106.56 64.3733 106.496 64.7146 106.368C65.0666 106.229 65.3333 106.091 65.5146 105.952L66.2026 107.312ZM63.2266 101.44C62.6826 101.44 62.2773 101.605 62.0106 101.936C61.7546 102.256 61.6 102.688 61.5466 103.232H64.5226C64.5653 102.656 64.4746 102.213 64.2506 101.904C64.0373 101.595 63.696 101.44 63.2266 101.44ZM69.9276 100V104.544C69.9276 105.195 70.0023 105.664 70.1516 105.952C70.3116 106.24 70.6156 106.384 71.0636 106.384C71.4583 106.384 71.7836 106.267 72.0396 106.032C72.3063 105.797 72.5036 105.509 72.6316 105.168V100H74.7116V105.568C74.7116 106.005 74.733 106.437 74.7756 106.864C74.8183 107.28 74.8823 107.659 74.9676 108H73.3996L73.0316 106.816H72.9676C72.7223 107.221 72.381 107.557 71.9436 107.824C71.5063 108.091 70.989 108.224 70.3916 108.224C69.9863 108.224 69.6236 108.171 69.3036 108.064C68.9836 107.957 68.717 107.781 68.5036 107.536C68.2903 107.291 68.125 106.96 68.0076 106.544C67.901 106.128 67.8476 105.605 67.8476 104.976V100H69.9276ZM75.705 100H76.809V98.496L78.889 97.904V100H80.841V101.76H78.889V104.832C78.889 105.387 78.9423 105.787 79.049 106.032C79.1663 106.267 79.3797 106.384 79.689 106.384C79.9023 106.384 80.0837 106.363 80.233 106.32C80.393 106.277 80.569 106.213 80.761 106.128L81.129 107.728C80.841 107.867 80.505 107.984 80.121 108.08C79.737 108.176 79.3477 108.224 78.953 108.224C78.217 108.224 77.673 108.037 77.321 107.664C76.9797 107.28 76.809 106.656 76.809 105.792V101.76H75.705V100ZM82.3071 100H84.3871V108H82.3071V100ZM82.0031 97.744C82.0031 97.4347 82.1151 97.1733 82.3391 96.96C82.5738 96.736 82.8938 96.624 83.2991 96.624C83.7045 96.624 84.0298 96.736 84.2751 96.96C84.5311 97.1733 84.6591 97.4347 84.6591 97.744C84.6591 98.0533 84.5311 98.3147 84.2751 98.528C84.0298 98.7307 83.7045 98.832 83.2991 98.832C82.8938 98.832 82.5738 98.7307 82.3391 98.528C82.1151 98.3147 82.0031 98.0533 82.0031 97.744ZM92.076 107.504C91.756 107.739 91.3667 107.915 90.908 108.032C90.46 108.16 89.996 108.224 89.516 108.224C88.876 108.224 88.332 108.123 87.884 107.92C87.4467 107.717 87.0893 107.435 86.812 107.072C86.5347 106.699 86.332 106.251 86.204 105.728C86.0867 105.205 86.028 104.629 86.028 104C86.028 102.645 86.332 101.605 86.94 100.88C87.548 100.144 88.4333 99.776 89.596 99.776C90.1827 99.776 90.652 99.824 91.004 99.92C91.3667 100.016 91.692 100.139 91.98 100.288L91.484 101.984C91.2387 101.867 90.9933 101.776 90.748 101.712C90.5133 101.648 90.2413 101.616 89.932 101.616C89.356 101.616 88.9187 101.808 88.62 102.192C88.3213 102.565 88.172 103.168 88.172 104C88.172 104.341 88.2093 104.656 88.284 104.944C88.3587 105.232 88.4707 105.483 88.62 105.696C88.7693 105.909 88.9613 106.08 89.196 106.208C89.4413 106.325 89.724 106.384 90.044 106.384C90.396 106.384 90.6947 106.341 90.94 106.256C91.1853 106.16 91.404 106.048 91.596 105.92L92.076 107.504ZM93.2859 100.464C93.7125 100.272 94.2192 100.123 94.8059 100.016C95.3925 99.8987 96.0059 99.84 96.6459 99.84C97.2005 99.84 97.6645 99.9093 98.0379 100.048C98.4112 100.176 98.7045 100.363 98.9179 100.608C99.1419 100.853 99.2965 101.147 99.3819 101.488C99.4779 101.829 99.5259 102.213 99.5259 102.64C99.5259 103.109 99.5099 103.584 99.4779 104.064C99.4459 104.533 99.4245 104.997 99.4139 105.456C99.4139 105.915 99.4299 106.363 99.4619 106.8C99.4939 107.227 99.5739 107.632 99.7019 108.016H98.0059L97.6699 106.912H97.5899C97.3765 107.243 97.0779 107.531 96.6939 107.776C96.3205 108.011 95.8352 108.128 95.2379 108.128C94.8645 108.128 94.5285 108.075 94.2299 107.968C93.9312 107.851 93.6752 107.691 93.4619 107.488C93.2485 107.275 93.0832 107.029 92.9659 106.752C92.8485 106.464 92.7899 106.144 92.7899 105.792C92.7899 105.301 92.8965 104.891 93.1099 104.56C93.3339 104.219 93.6485 103.947 94.0539 103.744C94.4699 103.531 94.9605 103.387 95.5259 103.312C96.1019 103.227 96.7419 103.2 97.4459 103.232C97.5205 102.635 97.4779 102.208 97.3179 101.952C97.1579 101.685 96.8005 101.552 96.2459 101.552C95.8299 101.552 95.3872 101.595 94.9179 101.68C94.4592 101.765 94.0805 101.877 93.7819 102.016L93.2859 100.464ZM95.9259 106.416C96.3419 106.416 96.6725 106.325 96.9179 106.144C97.1632 105.952 97.3445 105.749 97.4619 105.536V104.496C97.1312 104.464 96.8112 104.459 96.5019 104.48C96.2032 104.501 95.9365 104.549 95.7019 104.624C95.4672 104.699 95.2805 104.805 95.1419 104.944C95.0032 105.083 94.9339 105.259 94.9339 105.472C94.9339 105.771 95.0192 106.005 95.1899 106.176C95.3712 106.336 95.6165 106.416 95.9259 106.416ZM103.415 105.312C103.415 105.685 103.463 105.957 103.559 106.128C103.655 106.299 103.81 106.384 104.023 106.384C104.151 106.384 104.274 106.373 104.391 106.352C104.519 106.331 104.674 106.283 104.855 106.208L105.079 107.84C104.909 107.925 104.647 108.011 104.295 108.096C103.943 108.181 103.581 108.224 103.207 108.224C102.599 108.224 102.135 108.085 101.815 107.808C101.495 107.52 101.335 107.051 101.335 106.4V96.8H103.415V105.312ZM109.286 105.792C109.286 105.579 109.196 105.408 109.015 105.28C108.833 105.152 108.609 105.035 108.343 104.928C108.076 104.821 107.783 104.715 107.463 104.608C107.143 104.491 106.849 104.336 106.583 104.144C106.316 103.941 106.092 103.691 105.911 103.392C105.729 103.083 105.639 102.688 105.639 102.208C105.639 101.419 105.873 100.816 106.343 100.4C106.812 99.984 107.489 99.776 108.375 99.776C108.983 99.776 109.532 99.84 110.023 99.968C110.513 100.096 110.897 100.24 111.175 100.4L110.711 101.904C110.465 101.808 110.156 101.707 109.783 101.6C109.409 101.493 109.031 101.44 108.647 101.44C108.028 101.44 107.719 101.68 107.719 102.16C107.719 102.352 107.809 102.507 107.991 102.624C108.172 102.741 108.396 102.853 108.663 102.96C108.929 103.056 109.223 103.163 109.543 103.28C109.863 103.397 110.156 103.552 110.423 103.744C110.689 103.925 110.913 104.165 111.095 104.464C111.276 104.763 111.367 105.147 111.367 105.616C111.367 106.427 111.105 107.067 110.583 107.536C110.071 107.995 109.297 108.224 108.263 108.224C107.697 108.224 107.164 108.149 106.663 108C106.172 107.861 105.772 107.696 105.463 107.504L106.039 105.952C106.284 106.091 106.609 106.229 107.015 106.368C107.42 106.496 107.836 106.56 108.263 106.56C108.572 106.56 108.817 106.501 108.999 106.384C109.191 106.267 109.286 106.069 109.286 105.792Z" fill="black"/>
<path d="M66.5952 6.21484C67.387 6.64472 67.6607 7.30024 67.6353 8.19696C67.5844 10.0643 67.6235 11.9336 67.6177 13.801C67.6137 15.0478 67.0996 15.5535 65.8308 15.5594C64.2512 15.5652 62.6716 15.5594 61.047 15.5594V18.5899C62.7459 18.5899 64.4233 18.5705 66.0987 18.5938C68.6264 18.6288 70.6967 20.3211 71.205 22.7778C71.3164 23.3167 71.3086 23.8866 71.3086 24.4429C71.3145 37.1584 71.3125 49.8719 71.3125 62.5874V63.5814C71.5491 63.3655 71.6879 63.2527 71.8091 63.1243C74.5128 60.2377 77.8362 58.7632 81.8146 58.773C83.1811 58.7769 84.5456 58.7671 85.9121 58.7749C87.005 58.7807 87.5484 59.2962 87.5543 60.368C87.5641 62.9395 87.5973 65.5129 87.5387 68.0844C87.3842 74.9683 81.5545 80.7104 74.6008 80.7571C66.5268 80.8116 58.4528 80.7727 50.3788 80.7746C43.9646 80.7746 37.5485 80.7746 31.1343 80.7746C27.6016 80.7746 25.4336 78.6252 25.4336 75.1103C25.4297 58.1525 25.4297 41.1907 25.4297 24.2289C25.4297 20.751 27.5938 18.5958 31.0776 18.588C32.6063 18.5841 34.1371 18.588 35.6913 18.588V15.5613C34.139 15.5613 32.6337 15.5613 31.1264 15.5613C29.5527 15.5613 29.1187 15.1314 29.1167 13.585C29.1167 11.7897 29.1539 9.99234 29.1011 8.1989C29.0757 7.30219 29.3494 6.64861 30.1392 6.21484H66.5952ZM55.841 32.4297H28.4169V66.4563H52.1364C52.1364 66.1509 52.1364 65.8903 52.1364 65.6277C52.1364 63.9062 52.1246 62.1828 52.1403 60.4614C52.15 59.3059 52.6994 58.7846 53.8606 58.7768C54.5097 58.773 55.1587 58.7768 55.839 58.7768V32.4297H55.841ZM28.3739 29.4342H29.3924C38.5181 29.4342 47.6419 29.4342 56.7676 29.4342C58.3375 29.4342 58.8067 29.9068 58.8067 31.4824C58.8067 40.2687 58.8067 49.055 58.8067 57.8412V58.771C62.6736 59.0745 65.7878 60.6792 68.384 63.632C68.384 63.1924 68.384 62.955 68.384 62.7158C68.384 49.9011 68.384 37.0845 68.384 24.2698C68.384 22.3402 67.5277 21.5018 65.5591 21.5018C54.0913 21.5018 42.6255 21.5018 31.1577 21.5018C30.9388 21.5018 30.7178 21.494 30.4989 21.5116C29.3904 21.5991 28.4169 22.4841 28.3895 23.5676C28.3406 25.4797 28.3758 27.3956 28.3758 29.4342H28.3739ZM56.7579 77.8647C55.7804 76.575 54.6524 75.371 53.8704 73.9763C53.0884 72.5855 52.6525 71.0022 52.0425 69.4499H28.3582C28.3582 71.3445 28.3582 73.206 28.3582 75.0656C28.3582 77.0146 29.2086 77.8647 31.1479 77.8666C39.4858 77.8666 47.8257 77.8666 56.1636 77.8666C56.4021 77.8666 56.6425 77.8666 56.7559 77.8666L56.7579 77.8647ZM68.382 75.6705C68.382 74.2856 68.386 73.1282 68.382 71.9708C68.3547 65.83 63.2346 60.5353 55.1431 61.7918C55.1431 64.0677 54.9984 66.3532 55.1744 68.6135C55.5067 72.8948 58.5838 76.4136 62.7459 77.5145C63.9071 77.8219 65.0899 77.9639 66.5112 77.783C66.1573 77.4912 65.9364 77.3356 65.7468 77.1488C64.2434 75.6608 62.7439 74.1689 61.2504 72.6711C60.8066 72.2257 60.5329 71.6479 60.8887 71.0975C61.1487 70.6968 61.6394 70.2533 62.0695 70.2046C62.5113 70.1541 63.1056 70.4575 63.4556 70.7901C65.0762 72.3268 66.6363 73.9277 68.384 75.6725L68.382 75.6705ZM84.7822 61.6887C83.5486 61.6887 82.5535 61.6771 81.5604 61.6907C78.3171 61.7393 75.6838 63.0504 73.6076 65.511C71.1209 68.4579 71.1855 71.9631 71.3614 75.618C71.6038 75.3982 71.7798 75.2504 71.942 75.0889C73.4082 73.632 74.8784 72.179 76.3368 70.7143C76.8235 70.226 77.369 69.979 78.0473 70.2358C79.0991 70.6306 79.3063 71.8561 78.4442 72.7275C76.9232 74.2661 75.3788 75.7833 73.8461 77.3122C73.7015 77.4562 73.5744 77.6176 73.4102 77.8024C78.3171 78.3451 83.2671 74.9956 84.2426 70.1268C84.7822 67.427 84.6199 64.589 84.7802 61.6887H84.7822ZM64.6598 9.18315H32.1078V12.6047H64.6598V9.18315ZM58.0266 18.5491V15.6216H38.7253V18.5491H58.0266Z" fill="black"/>
<path d="M55.8402 32.4316V58.7768C55.1618 58.7768 54.5127 58.7729 53.8617 58.7768C52.7005 58.7846 52.1511 59.3059 52.1414 60.4613C52.1257 62.1828 52.1375 63.9062 52.1375 65.6277C52.1375 65.8903 52.1375 66.1509 52.1375 66.4563H28.416V32.4316H55.8402ZM46.646 53.9334C47.643 53.9334 48.5188 53.9509 49.3927 53.9295C50.4249 53.9042 50.9879 53.3751 51.0016 52.352C51.029 50.4127 51.029 48.4733 51.0016 46.534C50.9879 45.4564 50.4347 44.9507 49.3497 44.939C48.4778 44.9293 47.6078 44.939 46.644 44.939C46.644 43.9761 46.6636 43.0853 46.6382 42.1963C46.6088 41.1343 46.0478 40.5916 44.9882 40.5857C43.088 40.576 41.1858 40.578 39.2856 40.5857C38.1204 40.5896 37.6004 41.1129 37.5887 42.278C37.5809 43.1417 37.5887 44.0073 37.5887 44.939C36.6444 44.939 35.7979 44.9351 34.9495 44.939C33.7257 44.9468 33.2135 45.4486 33.2096 46.6605C33.2037 48.4305 33.2076 50.2006 33.2096 51.9707C33.2096 53.4724 33.667 53.9334 35.1626 53.9373C35.9543 53.9392 36.7461 53.9373 37.5887 53.9373C37.5887 54.8846 37.5848 55.7054 37.5887 56.5243C37.5965 57.7498 38.0911 58.2594 39.3071 58.2672C41.1584 58.2789 43.0117 58.2769 44.8631 58.2672C46.1162 58.2614 46.6284 57.742 46.6421 56.4893C46.6519 55.6704 46.6421 54.8515 46.6421 53.9334H46.646Z" fill="#FEDE00"/>
<path d="M68.3789 75.6762C66.6312 73.9313 65.0711 72.3305 63.4504 70.7938C63.1005 70.4612 62.5043 70.1597 62.0644 70.2083C61.6343 70.2569 61.1436 70.7004 60.8836 71.1011C60.5278 71.6516 60.8015 72.2293 61.2453 72.6748C62.7388 74.1725 64.2383 75.6645 65.7417 77.1525C65.9313 77.3393 66.1522 77.4949 66.506 77.7866C65.0848 77.9695 63.902 77.8255 62.7408 77.5182C58.5807 76.4173 55.5016 72.8985 55.1693 68.6172C54.9933 66.3569 55.138 64.0713 55.138 61.7955C63.2295 60.5389 68.3496 65.8337 68.3769 71.9745C68.3828 73.1319 68.3769 74.2873 68.3769 75.6742L68.3789 75.6762Z" fill="#FEDE00"/>
<path d="M84.778 61.6872C84.6177 64.5874 84.78 67.4254 84.2404 70.1252C83.2669 74.994 78.3149 78.3435 73.408 77.8008C73.5722 77.616 73.6993 77.4546 73.844 77.3106C75.3766 75.7818 76.9211 74.2665 78.442 72.7259C79.3022 71.8545 79.0969 70.631 78.0452 70.2342C77.3648 69.9794 76.8214 70.2244 76.3346 70.7127C74.8762 72.1774 73.406 73.6304 71.9398 75.0873C71.7776 75.2488 71.6016 75.3966 71.3592 75.6164C71.1833 71.9615 71.1187 68.4563 73.6055 65.5094C75.6816 63.0468 78.3149 61.7377 81.5582 61.6891C82.5513 61.6735 83.5464 61.6872 84.78 61.6872H84.778Z" fill="#FEDE00"/>
<path d="M46.6432 53.9297C46.6432 54.8478 46.6511 55.6667 46.6432 56.4856C46.6295 57.7402 46.1173 58.2576 44.8642 58.2635C43.0129 58.2732 41.1596 58.2751 39.3082 58.2635C38.0903 58.2557 37.5976 57.7441 37.5898 56.5206C37.584 55.6998 37.5898 54.8789 37.5898 53.9336C36.7472 53.9336 35.9555 53.9336 35.1637 53.9336C33.6682 53.9297 33.2107 53.4706 33.2107 51.967C33.2107 50.1969 33.2068 48.4268 33.2107 46.6567C33.2146 45.4449 33.7249 44.943 34.9506 44.9353C35.7991 44.9294 36.6456 44.9353 37.5898 44.9353C37.5898 44.0016 37.584 43.1379 37.5898 42.2743C37.6016 41.1072 38.1196 40.5859 39.2867 40.582C41.1869 40.5742 43.0891 40.5742 44.9893 40.582C46.0489 40.5878 46.61 41.1305 46.6393 42.1926C46.6647 43.0815 46.6452 43.9705 46.6452 44.9353C47.609 44.9353 48.4809 44.9275 49.3508 44.9353C50.4378 44.9469 50.9891 45.4527 51.0028 46.5303C51.0282 48.4696 51.0302 50.4089 51.0028 52.3483C50.9871 53.3714 50.4261 53.8985 49.3939 53.9258C48.52 53.9472 47.6442 53.9297 46.6471 53.9297H46.6432ZM43.7167 43.525H40.5144C40.5144 44.3517 40.5164 45.1453 40.5144 45.939C40.5086 47.3142 39.9905 47.8374 38.622 47.8452C37.8049 47.8491 36.9857 47.8452 36.1666 47.8452V51.0197C36.9936 51.0197 37.7912 51.0158 38.5908 51.0197C40.0433 51.0275 40.5125 51.4982 40.5164 52.9493C40.5184 53.739 40.5164 54.5268 40.5164 55.3127H43.7186C43.7186 54.4335 43.7128 53.5893 43.7186 52.747C43.7303 51.5274 44.223 51.0372 45.4585 51.0197C46.3031 51.008 47.1496 51.0178 48.0391 51.0178V47.8433C47.1691 47.8433 46.3422 47.8491 45.5172 47.8433C44.2445 47.8335 43.7303 47.3317 43.7186 46.0849C43.7108 45.2426 43.7186 44.4003 43.7186 43.525H43.7167Z" fill="black"/>
</svg>
