<svg width="79" height="106" viewBox="0 0 79 106" fill="none" xmlns="http://www.w3.org/2000/svg">
<path d="M21.912 90.752H18.648V100H16.456V90.752H13.176V88.8H21.912V90.752ZM27.3589 99.312C27.0389 99.568 26.6015 99.7867 26.0469 99.968C25.5029 100.139 24.9215 100.224 24.3029 100.224C23.0122 100.224 22.0682 99.8507 21.4709 99.104C20.8735 98.3467 20.5749 97.312 20.5749 96C20.5749 94.592 20.9109 93.536 21.5829 92.832C22.2549 92.128 23.1989 91.776 24.4149 91.776C24.8202 91.776 25.2149 91.8293 25.5989 91.936C25.9829 92.0427 26.3242 92.2187 26.6229 92.464C26.9215 92.7093 27.1615 93.04 27.3429 93.456C27.5242 93.872 27.6149 94.3893 27.6149 95.008C27.6149 95.232 27.5989 95.472 27.5669 95.728C27.5455 95.984 27.5082 96.2507 27.4549 96.528H22.6549C22.6869 97.2 22.8575 97.7067 23.1669 98.048C23.4869 98.3893 23.9989 98.56 24.7029 98.56C25.1402 98.56 25.5295 98.496 25.8709 98.368C26.2229 98.2293 26.4895 98.0907 26.6709 97.952L27.3589 99.312ZM24.3829 93.44C23.8389 93.44 23.4335 93.6053 23.1669 93.936C22.9109 94.256 22.7562 94.688 22.7029 95.232H25.6789C25.7215 94.656 25.6309 94.2133 25.4069 93.904C25.1935 93.5947 24.8522 93.44 24.3829 93.44ZM30.5481 95.904L28.1481 92H30.6281L31.6681 93.712L32.1161 94.832L32.5961 93.712L33.6841 92H35.9401L33.5241 95.84L36.1001 100H33.6841L32.4521 98.08L31.9721 96.896L31.4601 98.08L30.2281 100H27.9561L30.5481 95.904ZM36.3144 92H37.4184V90.496L39.4984 89.904V92H41.4504V93.76H39.4984V96.832C39.4984 97.3867 39.5517 97.7867 39.6584 98.032C39.7757 98.2667 39.989 98.384 40.2984 98.384C40.5117 98.384 40.693 98.3627 40.8424 98.32C41.0024 98.2773 41.1784 98.2133 41.3704 98.128L41.7384 99.728C41.4504 99.8667 41.1144 99.984 40.7304 100.08C40.3464 100.176 39.957 100.224 39.5624 100.224C38.8264 100.224 38.2824 100.037 37.9304 99.664C37.589 99.28 37.4184 98.656 37.4184 97.792V93.76H36.3144V92ZM42.9165 92H44.9965V100H42.9165V92ZM42.6125 89.744C42.6125 89.4347 42.7245 89.1733 42.9485 88.96C43.1832 88.736 43.5032 88.624 43.9085 88.624C44.3138 88.624 44.6392 88.736 44.8845 88.96C45.1405 89.1733 45.2685 89.4347 45.2685 89.744C45.2685 90.0533 45.1405 90.3147 44.8845 90.528C44.6392 90.7307 44.3138 90.832 43.9085 90.832C43.5032 90.832 43.1832 90.7307 42.9485 90.528C42.7245 90.3147 42.6125 90.0533 42.6125 89.744ZM49.1654 97.312C49.1654 97.6853 49.2134 97.9573 49.3094 98.128C49.4054 98.2987 49.56 98.384 49.7734 98.384C49.9014 98.384 50.024 98.3733 50.1414 98.352C50.2694 98.3307 50.424 98.2827 50.6054 98.208L50.8294 99.84C50.6587 99.9253 50.3974 100.011 50.0454 100.096C49.6934 100.181 49.3307 100.224 48.9574 100.224C48.3494 100.224 47.8854 100.085 47.5654 99.808C47.2454 99.52 47.0854 99.0507 47.0854 98.4V88.8H49.1654V97.312ZM58.1245 99.312C57.8045 99.568 57.3672 99.7867 56.8125 99.968C56.2685 100.139 55.6872 100.224 55.0685 100.224C53.7778 100.224 52.8338 99.8507 52.2365 99.104C51.6392 98.3467 51.3405 97.312 51.3405 96C51.3405 94.592 51.6765 93.536 52.3485 92.832C53.0205 92.128 53.9645 91.776 55.1805 91.776C55.5858 91.776 55.9805 91.8293 56.3645 91.936C56.7485 92.0427 57.0898 92.2187 57.3885 92.464C57.6872 92.7093 57.9272 93.04 58.1085 93.456C58.2898 93.872 58.3805 94.3893 58.3805 95.008C58.3805 95.232 58.3645 95.472 58.3325 95.728C58.3112 95.984 58.2738 96.2507 58.2205 96.528H53.4205C53.4525 97.2 53.6232 97.7067 53.9325 98.048C54.2525 98.3893 54.7645 98.56 55.4685 98.56C55.9058 98.56 56.2952 98.496 56.6365 98.368C56.9885 98.2293 57.2552 98.0907 57.4365 97.952L58.1245 99.312ZM55.1485 93.44C54.6045 93.44 54.1992 93.6053 53.9325 93.936C53.6765 94.256 53.5218 94.688 53.4685 95.232H56.4445C56.4872 94.656 56.3965 94.2133 56.1725 93.904C55.9592 93.5947 55.6178 93.44 55.1485 93.44ZM63.1615 97.792C63.1615 97.5787 63.0708 97.408 62.8895 97.28C62.7082 97.152 62.4842 97.0347 62.2175 96.928C61.9508 96.8213 61.6575 96.7147 61.3375 96.608C61.0175 96.4907 60.7242 96.336 60.4575 96.144C60.1908 95.9413 59.9668 95.6907 59.7855 95.392C59.6042 95.0827 59.5135 94.688 59.5135 94.208C59.5135 93.4187 59.7482 92.816 60.2175 92.4C60.6868 91.984 61.3642 91.776 62.2495 91.776C62.8575 91.776 63.4068 91.84 63.8975 91.968C64.3882 92.096 64.7722 92.24 65.0495 92.4L64.5855 93.904C64.3402 93.808 64.0308 93.7067 63.6575 93.6C63.2842 93.4933 62.9055 93.44 62.5215 93.44C61.9028 93.44 61.5935 93.68 61.5935 94.16C61.5935 94.352 61.6842 94.5067 61.8655 94.624C62.0468 94.7413 62.2708 94.8533 62.5375 94.96C62.8042 95.056 63.0975 95.1627 63.4175 95.28C63.7375 95.3973 64.0308 95.552 64.2975 95.744C64.5642 95.9253 64.7882 96.1653 64.9695 96.464C65.1508 96.7627 65.2415 97.1467 65.2415 97.616C65.2415 98.4267 64.9802 99.0667 64.4575 99.536C63.9455 99.9947 63.1722 100.224 62.1375 100.224C61.5722 100.224 61.0388 100.149 60.5375 100C60.0468 99.8613 59.6468 99.696 59.3375 99.504L59.9135 97.952C60.1588 98.0907 60.4842 98.2293 60.8895 98.368C61.2948 98.496 61.7108 98.56 62.1375 98.56C62.4468 98.56 62.6922 98.5013 62.8735 98.384C63.0655 98.2667 63.1615 98.0693 63.1615 97.792Z" fill="black"/>
<path d="M39.5459 2.21289C40.3232 2.67473 40.538 3.37033 40.5247 4.24649C40.4866 6.78183 40.5247 9.31908 40.5019 11.8563C40.4981 12.3334 40.6159 12.5253 41.1119 12.6698C43.4116 13.3407 44.8655 14.8725 45.2361 17.2482C45.9032 21.5302 46.481 25.8273 47.0968 30.1169C47.1348 30.3887 47.1918 30.6567 47.2222 30.8372C48.3036 30.3469 49.3452 29.8736 50.4684 29.3624C50.4684 27.2984 50.4684 25.1203 50.4684 22.9404C50.4684 21.4085 50.8846 20.9904 52.3974 20.9885C54.9575 20.9885 57.5176 20.9866 60.0776 20.9885C61.3244 20.9885 61.8413 21.5055 61.8451 22.7674C61.8527 24.8067 61.8584 26.846 61.8375 28.8834C61.8318 29.3548 61.9287 29.5638 62.4495 29.6931C64.7188 30.2518 66.2107 31.6887 66.7106 33.9788C67.5544 37.8408 68.3108 41.7217 69.092 45.597C69.2744 46.5054 68.7727 47.2599 67.9307 47.4082C67.1572 47.5431 66.4749 47.011 66.2886 46.0987C65.5265 42.3641 64.772 38.6276 64.0156 34.893C63.6868 33.268 62.6225 32.3748 60.9823 32.3729C57.7589 32.3672 54.5337 32.3672 51.3103 32.3729C49.693 32.3748 48.7123 33.249 48.2656 34.8113C47.8266 36.3469 48.2029 37.8199 48.4101 39.308C49.2824 45.5475 50.1852 51.7814 51.0766 58.019C51.5631 61.4191 52.0268 64.8211 52.5419 68.2174C52.751 69.5972 52.5704 70.8934 51.9166 72.2086H52.7072C57.6848 72.2086 62.6643 72.2086 67.6418 72.2086C70.0479 72.2086 71.2776 70.7261 70.8063 68.3904C70.1829 65.3038 69.5557 62.2192 68.9266 59.1327C68.7156 58.095 69.1376 57.3253 70.0137 57.1581C70.8367 57.0003 71.5 57.5458 71.7052 58.5721C72.3818 61.938 73.1287 65.2905 73.6989 68.6735C74.2406 71.8817 71.6748 74.877 68.4116 75.0423C68.1987 75.0537 67.9858 75.0537 67.7711 75.0537C49.9913 75.0537 32.2097 75.0537 14.43 75.0537C11.4993 75.0537 9.27377 73.3793 8.58387 70.7128C8.25697 69.449 8.52495 68.2136 8.6998 66.9763C10.1119 57.0345 11.5335 47.0927 12.9552 37.1528C13.8978 30.5654 14.8196 23.9743 15.7965 17.3908C16.1519 14.9903 17.5697 13.3958 19.8979 12.7002C20.4795 12.5272 20.603 12.2802 20.5973 11.729C20.5688 9.16894 20.6087 6.60888 20.5726 4.04883C20.5612 3.19358 20.8273 2.5797 21.6122 2.21669H39.5383L39.5459 2.21289ZM14.3901 47.3569C14.1278 49.2118 13.9111 50.9508 13.6222 52.6765C13.5291 53.2277 13.6926 53.4577 14.1582 53.7066C20.2742 56.9775 26.3807 60.2693 32.4891 63.5553C37.5123 66.2598 42.5411 68.9567 47.551 71.684C48.0433 71.952 48.3702 71.8912 48.7503 71.57C49.6283 70.8269 49.9096 69.8728 49.7576 68.7648C49.6777 68.1775 49.5523 67.5959 49.5105 67.0067C49.4687 66.4328 49.233 66.0907 48.7085 65.8094C39.0289 60.6171 29.3608 55.4038 19.6888 50.1963C17.9631 49.2669 16.2336 48.3433 14.3901 47.355V47.3569ZM48.8187 62.626C48.7959 62.2782 48.7959 62.0444 48.7636 61.8163C48.5032 60.0127 48.2105 58.2129 47.9901 56.4035C47.9254 55.8638 47.7107 55.5806 47.245 55.3316C37.3621 50.0252 27.4868 44.7037 17.6077 39.3859C16.9881 39.0514 16.3629 38.7264 15.673 38.3615C15.4107 40.226 15.1807 42.0049 14.8956 43.7781C14.8215 44.2438 14.9621 44.4357 15.3518 44.6448C26.2344 50.4928 37.1075 56.3541 47.9844 62.2116C48.2257 62.3428 48.4766 62.4587 48.8149 62.626H48.8187ZM47.3819 52.1767C47.0512 49.8865 46.7528 47.7066 46.3974 45.538C46.3556 45.2872 46.0344 45.0173 45.7759 44.8785C36.4271 39.8307 27.0706 34.7961 17.7142 29.7615C17.4804 29.6361 17.2409 29.5201 16.9615 29.3776C16.7012 31.1964 16.494 32.9126 16.1937 34.6136C16.0835 35.2389 16.3134 35.4765 16.8076 35.7425C25.8961 40.6213 34.9769 45.5171 44.0597 50.4092C45.1354 50.9888 46.2149 51.559 47.38 52.1786L47.3819 52.1767ZM18.2558 20.3594C17.9954 22.1612 17.775 23.8698 17.488 25.5651C17.3835 26.1846 17.5754 26.4659 18.119 26.7567C26.3009 31.1337 34.4676 35.5392 42.6381 39.9371C43.6758 40.4958 44.7135 41.0508 45.8234 41.6476C45.8044 41.3302 45.8063 41.1192 45.7759 40.9121C45.5155 39.1065 45.2114 37.3086 45.0062 35.4974C44.9359 34.8664 44.6698 34.5528 44.1433 34.2715C36.8395 30.3583 29.547 26.4241 22.2527 22.4976C20.9451 21.7943 19.6356 21.0968 18.2558 20.3575V20.3594ZM37.6434 5.11314H23.4843V12.398H37.6434V5.11314ZM28.5815 64.6881C26.6886 63.6675 24.9363 62.7419 23.2049 61.7764C22.7601 61.5293 22.4237 61.5274 21.9733 61.7745C18.9647 63.4204 15.9694 65.0929 12.9038 66.6285C11.8148 67.174 11.2599 67.8468 11.2941 69.0327C11.296 69.1031 11.2732 69.1734 11.2732 69.2437C11.2732 70.3175 11.6894 71.1937 12.6112 71.7543C13.4873 72.2884 14.3749 72.3834 15.3461 71.8304C17.296 70.7166 19.2954 69.6884 21.2739 68.6241C23.6648 67.3374 26.0557 66.0489 28.5796 64.6881H28.5815ZM27.7852 22.2182C28.0817 22.3892 28.2794 22.5109 28.4827 22.6192C30.045 23.4611 31.6148 24.2841 33.1638 25.1507C33.5819 25.3845 33.8974 25.4073 34.3288 25.1678C36.5221 23.9534 38.7362 22.7788 40.9409 21.5853C41.5624 21.2489 42.4423 21.0284 42.7122 20.502C42.9802 19.9793 42.621 19.1393 42.5526 18.438C42.4746 17.6245 42.3112 16.8472 41.7277 16.2219C40.9827 15.4237 40.5361 15.3458 39.5858 15.8608C39.3786 15.9729 39.1677 16.0813 38.9586 16.1934C35.2753 18.1795 31.5901 20.1675 27.7871 22.2182H27.7852ZM20.717 72.1554H42.3549C42.1819 72.0356 42.1116 71.9767 42.0337 71.933C38.7039 70.1351 35.376 68.3314 32.0311 66.5601C31.7954 66.4347 31.3811 66.4442 31.1378 66.5677C29.8492 67.2158 28.5891 67.919 27.3177 68.6032C25.1757 69.7569 23.0338 70.9086 20.7151 72.1554H20.717ZM18.7595 17.3851C20.6714 18.4152 22.5397 19.4396 24.4288 20.4183C24.636 20.5267 25.0199 20.4488 25.2537 20.3271C27.0801 19.3749 28.8894 18.3904 30.7026 17.4136C31.917 16.7598 33.1296 16.1003 34.3592 15.4332C34.2851 15.3515 34.2718 15.3229 34.2566 15.3229C29.9195 15.3172 25.5825 15.2944 21.2454 15.3248C20.0442 15.3343 19.1035 16.1744 18.7595 17.3851ZM53.3705 23.8565V29.484H58.9487V23.8565H53.3705ZM36.7597 27.0779C39.3254 28.4596 41.7961 29.79 44.3809 31.1812C44.0027 28.5584 43.6473 26.1029 43.2824 23.5638C41.0587 24.7611 38.9662 25.8882 36.7597 27.076V27.0779ZM13.1072 56.3541C12.7442 58.8971 12.3983 61.326 12.0315 63.9069C14.6029 62.5214 17.0376 61.21 19.5805 59.8378C17.3606 58.6424 15.2833 57.5249 13.1072 56.3541Z" fill="black"/>
<path d="M14.3925 47.3516C16.2361 48.3399 17.9656 49.2635 19.6913 50.1929C29.3632 55.4004 39.0314 60.6137 48.7109 65.806C49.2355 66.0873 49.4711 66.4294 49.5129 67.0033C49.5548 67.5925 49.6802 68.1741 49.76 68.7614C49.9121 69.8713 49.6308 70.8235 48.7527 71.5666C48.3726 71.8878 48.0457 71.9486 47.5535 71.6806C42.5436 68.9514 37.5147 66.2545 32.4915 63.5519C26.3831 60.264 20.2786 56.9722 14.1607 53.7032C13.695 53.4543 13.5316 53.2243 13.6247 52.6731C13.9155 50.9474 14.1321 49.2084 14.3925 47.3535V47.3516Z" fill="#FEDE00"/>
<path d="M48.8141 62.6219C48.4758 62.4527 48.2249 62.3368 47.9836 62.2075C37.1067 56.35 26.2336 50.4887 15.351 44.6407C14.9594 44.4297 14.8188 44.2397 14.8948 43.774C15.1799 42.0027 15.4099 40.2219 15.6722 38.3574C16.3621 38.7223 16.9854 39.0492 17.6069 39.3818C27.4841 44.6996 37.3594 50.0212 47.2442 55.3275C47.708 55.5765 47.9227 55.8597 47.9893 56.3994C48.2097 58.2088 48.5024 60.0086 48.7628 61.8122C48.7951 62.0403 48.7951 62.2722 48.8179 62.6219H48.8141Z" fill="#FEDE00"/>
<path d="M47.3872 52.178C46.2222 51.5565 45.1408 50.9863 44.0669 50.4085C34.9842 45.5184 25.9033 40.6226 16.8148 35.7419C16.3207 35.4777 16.0907 35.2383 16.2009 34.613C16.5012 32.9139 16.7084 31.1958 16.9688 29.377C17.2482 29.5195 17.4876 29.6335 17.7214 29.7609C27.0778 34.7954 36.4343 39.83 45.7831 44.8779C46.0416 45.0167 46.3628 45.2884 46.4046 45.5374C46.76 47.7078 47.0565 49.8859 47.3891 52.1761L47.3872 52.178Z" fill="#FEDE00"/>
<path d="M18.2542 20.3574C19.6359 21.0967 20.9453 21.7942 22.251 22.4975C29.5473 26.424 36.8397 30.3582 44.1417 34.2714C44.6681 34.5546 44.9342 34.8663 45.0045 35.4973C45.2079 37.3085 45.5139 39.1083 45.7742 40.912C45.8047 41.1191 45.8028 41.332 45.8218 41.6475C44.7099 41.0507 43.6722 40.4957 42.6364 39.937C34.4659 35.5391 26.2992 31.1336 18.1173 26.7566C17.5738 26.4658 17.3818 26.1845 17.4863 25.565C17.7733 23.8678 17.9938 22.1611 18.2542 20.3593V20.3574Z" fill="#FEDE00"/>
</svg>
