<svg width="87" height="104" viewBox="0 0 87 104" fill="none" xmlns="http://www.w3.org/2000/svg">
<path d="M3.872 93.056L4.08 95.04H4.144L4.368 93.024L6.32 86.8H7.76L9.68 93.056L9.904 95.04H9.968L10.208 93.024L11.568 86.8H13.792L10.704 98.08H9.232L7.232 91.856L6.96 90.144H6.88L6.608 91.872L4.624 98.08H3.072L0 86.8H2.384L3.872 93.056ZM19.6049 98V93.456C19.6049 92.8053 19.5142 92.336 19.3329 92.048C19.1515 91.76 18.8209 91.616 18.3409 91.616C17.9889 91.616 17.6635 91.7387 17.3649 91.984C17.0769 92.2187 16.8849 92.5227 16.7889 92.896V98H14.7089V86.8H16.7889V90.896H16.8529C17.1089 90.5547 17.4235 90.2827 17.7969 90.08C18.1702 89.8773 18.6449 89.776 19.2209 89.776C19.6262 89.776 19.9835 89.8293 20.2929 89.936C20.6022 90.0427 20.8582 90.2187 21.0609 90.464C21.2742 90.7093 21.4289 91.0453 21.5249 91.472C21.6315 91.888 21.6849 92.4053 21.6849 93.024V98H19.6049ZM23.6196 90H25.6996V98H23.6196V90ZM23.3156 87.744C23.3156 87.4347 23.4276 87.1733 23.6516 86.96C23.8863 86.736 24.2063 86.624 24.6116 86.624C25.017 86.624 25.3423 86.736 25.5876 86.96C25.8436 87.1733 25.9716 87.4347 25.9716 87.744C25.9716 88.0533 25.8436 88.3147 25.5876 88.528C25.3423 88.7307 25.017 88.832 24.6116 88.832C24.2063 88.832 23.8863 88.7307 23.6516 88.528C23.4276 88.3147 23.3156 88.0533 23.3156 87.744ZM26.8925 90H27.9965V88.496L30.0765 87.904V90H32.0285V91.76H30.0765V94.832C30.0765 95.3867 30.1298 95.7867 30.2365 96.032C30.3538 96.2667 30.5672 96.384 30.8765 96.384C31.0898 96.384 31.2712 96.3627 31.4205 96.32C31.5805 96.2773 31.7565 96.2133 31.9485 96.128L32.3165 97.728C32.0285 97.8667 31.6925 97.984 31.3085 98.08C30.9245 98.176 30.5352 98.224 30.1405 98.224C29.4045 98.224 28.8605 98.0373 28.5085 97.664C28.1672 97.28 27.9965 96.656 27.9965 95.792V91.76H26.8925V90ZM39.6245 97.312C39.3045 97.568 38.8672 97.7867 38.3125 97.968C37.7685 98.1387 37.1872 98.224 36.5685 98.224C35.2778 98.224 34.3338 97.8507 33.7365 97.104C33.1392 96.3467 32.8405 95.312 32.8405 94C32.8405 92.592 33.1765 91.536 33.8485 90.832C34.5205 90.128 35.4645 89.776 36.6805 89.776C37.0858 89.776 37.4805 89.8293 37.8645 89.936C38.2485 90.0427 38.5898 90.2187 38.8885 90.464C39.1872 90.7093 39.4272 91.04 39.6085 91.456C39.7898 91.872 39.8805 92.3893 39.8805 93.008C39.8805 93.232 39.8645 93.472 39.8325 93.728C39.8112 93.984 39.7738 94.2507 39.7205 94.528H34.9205C34.9525 95.2 35.1232 95.7067 35.4325 96.048C35.7525 96.3893 36.2645 96.56 36.9685 96.56C37.4058 96.56 37.7952 96.496 38.1365 96.368C38.4885 96.2293 38.7552 96.0907 38.9365 95.952L39.6245 97.312ZM36.6485 91.44C36.1045 91.44 35.6992 91.6053 35.4325 91.936C35.1765 92.256 35.0218 92.688 34.9685 93.232H37.9445C37.9872 92.656 37.8965 92.2133 37.6725 91.904C37.4592 91.5947 37.1178 91.44 36.6485 91.44ZM49.1933 92.16H53.3693V97.152C52.9213 97.5253 52.3826 97.7973 51.7533 97.968C51.1346 98.1387 50.5213 98.224 49.9133 98.224C49.1986 98.224 48.5319 98.112 47.9133 97.888C47.3053 97.664 46.7773 97.3173 46.3293 96.848C45.8813 96.368 45.5293 95.76 45.2733 95.024C45.0173 94.288 44.8893 93.4133 44.8893 92.4C44.8893 91.344 45.0386 90.448 45.3372 89.712C45.6466 88.9653 46.0466 88.3627 46.5373 87.904C47.0386 87.4347 47.5986 87.0987 48.2173 86.896C48.8359 86.6827 49.4653 86.576 50.1053 86.576C50.7453 86.576 51.3053 86.624 51.7853 86.72C52.2759 86.816 52.6653 86.9173 52.9533 87.024L52.5052 88.864C52.2386 88.7573 51.9399 88.6773 51.6093 88.624C51.2786 88.56 50.8573 88.528 50.3453 88.528C49.8866 88.528 49.4653 88.5973 49.0813 88.736C48.6973 88.8747 48.3613 89.104 48.0733 89.424C47.7959 89.7333 47.5773 90.1333 47.4173 90.624C47.2679 91.1147 47.1933 91.712 47.1933 92.416C47.1933 93.088 47.2679 93.6693 47.4173 94.16C47.5666 94.64 47.7746 95.04 48.0413 95.36C48.3079 95.6693 48.6173 95.8987 48.9693 96.048C49.3319 96.1973 49.7159 96.272 50.1213 96.272C50.3986 96.272 50.6706 96.24 50.9373 96.176C51.2039 96.1013 51.4279 95.9947 51.6093 95.856V93.744L49.1933 93.488V92.16ZM54.5592 94C54.5592 92.6453 54.8899 91.6053 55.5513 90.88C56.2126 90.144 57.1406 89.776 58.3353 89.776C58.9753 89.776 59.5299 89.8773 59.9993 90.08C60.4686 90.2827 60.8579 90.5707 61.1673 90.944C61.4766 91.3067 61.7059 91.7493 61.8553 92.272C62.0153 92.7947 62.0953 93.3707 62.0953 94C62.0953 95.3547 61.7646 96.4 61.1033 97.136C60.4526 97.8613 59.5299 98.224 58.3353 98.224C57.6953 98.224 57.1406 98.1227 56.6713 97.92C56.2019 97.7173 55.8073 97.4347 55.4873 97.072C55.1779 96.6987 54.9433 96.2507 54.7833 95.728C54.6339 95.2053 54.5592 94.6293 54.5592 94ZM56.7033 94C56.7033 94.352 56.7353 94.6773 56.7993 94.976C56.8633 95.2747 56.9593 95.536 57.0873 95.76C57.2153 95.984 57.3806 96.16 57.5833 96.288C57.7966 96.4053 58.0473 96.464 58.3353 96.464C58.8793 96.464 59.2846 96.2667 59.5513 95.872C59.8179 95.4773 59.9513 94.8533 59.9513 94C59.9513 93.264 59.8286 92.672 59.5833 92.224C59.3379 91.7653 58.9219 91.536 58.3353 91.536C57.8233 91.536 57.4233 91.728 57.1353 92.112C56.8473 92.496 56.7033 93.1253 56.7033 94ZM63.153 94C63.153 92.6453 63.4837 91.6053 64.145 90.88C64.8063 90.144 65.7343 89.776 66.929 89.776C67.569 89.776 68.1237 89.8773 68.593 90.08C69.0623 90.2827 69.4517 90.5707 69.761 90.944C70.0703 91.3067 70.2997 91.7493 70.449 92.272C70.609 92.7947 70.689 93.3707 70.689 94C70.689 95.3547 70.3583 96.4 69.697 97.136C69.0463 97.8613 68.1237 98.224 66.929 98.224C66.289 98.224 65.7343 98.1227 65.265 97.92C64.7957 97.7173 64.401 97.4347 64.081 97.072C63.7717 96.6987 63.537 96.2507 63.377 95.728C63.2277 95.2053 63.153 94.6293 63.153 94ZM65.297 94C65.297 94.352 65.329 94.6773 65.393 94.976C65.457 95.2747 65.553 95.536 65.681 95.76C65.809 95.984 65.9743 96.16 66.177 96.288C66.3903 96.4053 66.641 96.464 66.929 96.464C67.473 96.464 67.8783 96.2667 68.145 95.872C68.4117 95.4773 68.545 94.8533 68.545 94C68.545 93.264 68.4223 92.672 68.177 92.224C67.9317 91.7653 67.5157 91.536 66.929 91.536C66.417 91.536 66.017 91.728 65.729 92.112C65.441 92.496 65.297 93.1253 65.297 94ZM78.9308 95.184C78.9308 95.632 78.9361 96.08 78.9468 96.528C78.9574 96.976 79.0054 97.472 79.0908 98.016H77.6028L77.3148 96.976H77.2508C77.0374 97.3493 76.7281 97.6533 76.3228 97.888C75.9281 98.112 75.4588 98.224 74.9148 98.224C73.9121 98.224 73.1334 97.8933 72.5788 97.232C72.0241 96.5707 71.7467 95.536 71.7467 94.128C71.7467 92.7627 72.0561 91.7013 72.6748 90.944C73.2934 90.1867 74.2001 89.808 75.3948 89.808C75.7254 89.808 75.9974 89.8293 76.2108 89.872C76.4241 89.904 76.6374 89.9627 76.8508 90.048V86.8H78.9308V95.184ZM75.3948 96.464C75.8001 96.464 76.1201 96.368 76.3548 96.176C76.5894 95.9733 76.7548 95.6853 76.8508 95.312V91.92C76.7014 91.8027 76.5361 91.7173 76.3548 91.664C76.1734 91.6 75.9388 91.568 75.6508 91.568C75.0641 91.568 74.6214 91.7653 74.3228 92.16C74.0348 92.5547 73.8908 93.232 73.8908 94.192C73.8908 94.8747 74.0081 95.424 74.2428 95.84C74.4881 96.256 74.8721 96.464 75.3948 96.464ZM84.0677 95.792C84.0677 95.5787 83.9771 95.408 83.7958 95.28C83.6144 95.152 83.3904 95.0347 83.1238 94.928C82.8571 94.8213 82.5638 94.7147 82.2438 94.608C81.9238 94.4907 81.6304 94.336 81.3638 94.144C81.0971 93.9413 80.8731 93.6907 80.6918 93.392C80.5104 93.0827 80.4198 92.688 80.4198 92.208C80.4198 91.4187 80.6544 90.816 81.1238 90.4C81.5931 89.984 82.2704 89.776 83.1558 89.776C83.7638 89.776 84.3131 89.84 84.8038 89.968C85.2944 90.096 85.6784 90.24 85.9558 90.4L85.4918 91.904C85.2464 91.808 84.9371 91.7067 84.5638 91.6C84.1904 91.4933 83.8118 91.44 83.4278 91.44C82.8091 91.44 82.4998 91.68 82.4998 92.16C82.4998 92.352 82.5904 92.5067 82.7718 92.624C82.9531 92.7413 83.1771 92.8533 83.4438 92.96C83.7104 93.056 84.0038 93.1627 84.3238 93.28C84.6438 93.3973 84.9371 93.552 85.2038 93.744C85.4704 93.9253 85.6944 94.1653 85.8758 94.464C86.0571 94.7627 86.1478 95.1467 86.1478 95.616C86.1478 96.4267 85.8864 97.0667 85.3638 97.536C84.8518 97.9947 84.0784 98.224 83.0438 98.224C82.4784 98.224 81.9451 98.1493 81.4438 98C80.9531 97.8613 80.5531 97.696 80.2438 97.504L80.8198 95.952C81.0651 96.0907 81.3904 96.2293 81.7958 96.368C82.2011 96.496 82.6171 96.56 83.0438 96.56C83.3531 96.56 83.5984 96.5013 83.7798 96.384C83.9718 96.2667 84.0677 96.0693 84.0677 95.792Z" fill="black"/>
<path d="M47.3186 0H80.1222C80.8252 0.373372 81.0018 0.968289 81.0018 1.73982C80.9863 24.4319 80.9894 47.1239 80.9894 69.816C80.9894 69.9601 80.994 70.1057 80.9878 70.2498C80.9476 71.0662 80.4877 71.5248 79.6624 71.5604C79.3078 71.5759 78.9532 71.5635 78.5196 71.5635V73.9757H76.0468V71.624H51.3616V73.9757H48.9197C48.9197 73.5435 48.9197 73.1608 48.9197 72.7797C48.9197 72.3986 48.9197 71.9849 48.9197 71.5651C48.6596 71.5651 48.5156 71.5651 48.3716 71.5651C46.7457 71.5511 46.4577 71.2552 46.4577 69.6068C46.4577 46.9876 46.4608 24.3668 46.4453 1.74757C46.4453 0.977585 46.6249 0.382668 47.3186 0.00154926V0ZM78.4995 25.9625H48.9786V69.0506H78.4995V25.9625ZM78.4747 23.4109V2.50671H48.9708V23.4109H78.4747V23.4109Z" fill="black"/>
<path d="M7 70.712V26.7579C7.39485 26.0777 7.99255 25.8965 8.75747 25.8965C19.8845 25.9135 31.01 25.9073 42.1371 25.9089C43.6623 25.9089 43.9937 26.2435 43.9937 27.7835C43.9937 41.7594 43.9937 55.7353 43.9937 69.7112C43.9937 69.9033 44.0014 70.0969 43.9906 70.289C43.9472 71.0652 43.4889 71.53 42.71 71.5703C42.3353 71.5904 41.9575 71.5734 41.5038 71.5734V74.0011H39.0557V71.6183H11.907V73.9794H9.43414V71.5889C8.49579 71.561 7.50944 71.7531 7 70.7135V70.712ZM41.493 69.0853V38.3231H9.51311V69.0853H41.493ZM9.49298 35.7188H41.4945V28.4218H9.49298V35.7188Z" fill="black"/>
<path d="M43.1281 0C43.7924 0.359429 44.0092 0.914065 44.0076 1.66701C43.9875 8.36447 43.9968 15.0619 43.9952 21.7594C43.9952 23.0515 43.6128 23.4326 42.3167 23.4326C31.0968 23.4326 19.8768 23.428 8.65528 23.445C7.90119 23.445 7.3422 23.2436 7 22.5557V0H43.1281ZM31.6387 2.5191H9.50382V20.9259H31.6387V2.5191ZM41.4775 20.9383V2.49896H34.1859V20.9383H41.4775Z" fill="black"/>
<path d="M78.4994 25.9648V69.0529H48.9785V25.9648H78.4994ZM52.6824 28.4096V45.6079H55.0484V28.4096H52.6824Z" fill="#FEDE00"/>
<path d="M31.6407 2.51953V20.9263H9.50586V2.51953H31.6407ZM20.5121 18.5064C22.9184 18.5064 25.3262 18.511 27.7325 18.5033C28.7343 18.5002 29.2004 18.0571 29.2035 17.047C29.2174 13.5069 29.2159 9.96684 29.2035 6.42832C29.2004 5.37947 28.739 4.93018 27.6969 4.92863C22.9556 4.92244 18.2143 4.92399 13.473 4.92863C12.3798 4.92863 11.9307 5.37637 11.9292 6.4624C11.923 9.95444 11.9245 13.4465 11.9292 16.937C11.9292 18.0741 12.3658 18.5017 13.507 18.5048C15.8421 18.5079 18.1756 18.5048 20.5106 18.5048L20.5121 18.5064Z" fill="#FEDE00"/>
<path d="M52.6836 28.4062H55.0496V45.6046H52.6836V28.4062Z" fill="black"/>
<path d="M55.0522 20.9261H52.6738V8.70703H55.0522V20.9261Z" fill="black"/>
<path d="M25.5056 39.4805C32.9985 39.4913 39.0978 45.628 39.0668 53.1248C39.0358 60.583 32.9009 66.67 25.4467 66.6375C17.9802 66.605 11.9119 60.4947 11.9258 53.0257C11.9413 45.5567 18.0421 39.4696 25.5056 39.4805V39.4805ZM30.6448 59.9881C26.2628 63.0122 21.348 61.6396 18.8102 58.6015C16.0988 55.3558 16.119 50.6615 18.8953 47.3879C21.3527 44.4893 26.221 43.0267 30.5055 45.9967C31.1063 45.4219 31.6838 44.8673 32.2583 44.3157C28.0342 40.8144 21.0074 41.0514 16.904 46.0153C12.923 50.8319 13.739 57.9725 18.6956 61.8332C23.4493 65.536 29.7127 64.2857 32.2986 61.6566C31.7582 61.1113 31.2178 60.566 30.6448 59.9865V59.9881ZM28.8595 47.9704C26.5833 46.226 23.0714 46.6288 20.9919 48.8194C18.8117 51.1154 18.7374 54.6896 20.8216 57.1018C22.8175 59.4117 26.351 59.8998 28.8641 58.1507C27.8128 57.4938 27.9459 56.4558 27.9552 55.4441C27.9692 53.7848 27.9815 52.124 27.9506 50.4648C27.932 49.5027 27.9103 48.57 28.8611 47.972L28.8595 47.9704ZM34.0948 46.1934C33.0279 47.2624 31.9409 48.3097 30.9112 49.4113C30.651 49.6901 30.4621 50.1394 30.442 50.5205C30.3816 51.6716 30.5256 52.8413 30.3956 53.98C30.2097 55.6083 30.6929 56.8338 31.9935 57.8377C32.7755 58.4419 33.4196 59.2274 34.1288 59.937C37.6113 55.7617 37.1514 49.5569 34.0932 46.1919L34.0948 46.1934Z" fill="black"/>
<path d="M31.7148 30.8633H39.0111V33.2553H31.7148V30.8633Z" fill="black"/>
<path d="M14.3503 33.2672H11.9766V30.8906H14.3503V33.2672Z" fill="black"/>
<path d="M19.2618 33.2646H16.9004V30.9004H19.2618V33.2646Z" fill="black"/>
<path d="M21.8414 30.8373C22.549 30.8373 23.2149 30.8109 23.876 30.859C24.0138 30.8683 24.2291 31.144 24.2399 31.3098C24.2833 31.9295 24.257 32.5539 24.257 33.2402H21.8398V30.8373H21.8414Z" fill="black"/>
<path d="M20.5107 18.5035C18.1757 18.5035 15.8422 18.5066 13.5071 18.5035C12.3644 18.502 11.9308 18.0728 11.9293 16.9356C11.9246 13.4436 11.9246 9.95157 11.9293 6.46108C11.9308 5.3735 12.3799 4.92731 13.4731 4.92731C18.2144 4.92267 22.9557 4.92267 27.697 4.92731C28.7391 4.92731 29.2005 5.37815 29.2036 6.427C29.2145 9.96706 29.216 13.5071 29.2036 17.0456C29.2005 18.0542 28.7344 18.4989 27.7326 18.502C25.3263 18.5097 22.9185 18.505 20.5122 18.505L20.5107 18.5035ZM14.4532 7.41698V15.9875H26.6843V7.41698H14.4532Z" fill="black"/>
<path d="M39.6678 17.2876C39.6585 18.3023 38.8487 19.1002 37.8298 19.0986C36.7784 19.0986 35.9748 18.2682 36.0027 17.2116C36.0305 16.1876 36.8373 15.4222 37.8701 15.4377C38.8858 15.4548 39.6771 16.2681 39.6678 17.2876V17.2876ZM37.8035 16.4184C37.5356 16.8073 37.2135 17.0799 37.2584 17.2597C37.3188 17.5013 37.6626 17.6733 37.8856 17.8763C38.0683 17.6609 38.3857 17.4502 38.3934 17.2271C38.4012 17.0133 38.0899 16.7871 37.8035 16.4184Z" fill="black"/>
<path d="M39.0314 9.9082V12.2739H36.6406V9.9082H39.0314Z" fill="black"/>
<path d="M30.6505 59.9831C31.2234 60.5626 31.7638 61.1079 32.3042 61.6532C29.7184 64.2823 23.4549 65.5326 18.7012 61.8299C13.7447 57.9706 12.9287 50.8285 16.9097 46.0119C21.0131 41.048 28.0399 40.8095 32.264 44.3123C31.6895 44.8623 31.112 45.417 30.5112 45.9933C26.2266 43.0234 21.3584 44.4859 18.901 47.3845C16.1246 50.6581 16.1045 55.3524 18.8158 58.5981C21.3537 61.6362 26.2684 63.0088 30.6505 59.9847V59.9831Z" fill="#FEDE00"/>
<path d="M34.1036 46.1934C37.1618 49.5568 37.6217 55.7616 34.1393 59.9384C33.4285 59.2304 32.7859 58.4434 32.004 57.8392C30.7033 56.8337 30.2186 55.6098 30.406 53.9815C30.5361 52.8412 30.392 51.6731 30.4524 50.522C30.4726 50.1409 30.6615 49.6916 30.9216 49.4127C31.9498 48.3112 33.0368 47.2639 34.1052 46.1949L34.1036 46.1934Z" fill="#FEDE00"/>
</svg>
